<?xml version="1.0" encoding="utf-8"?>
<!-- Generator: Adobe Illustrator 24.1.0, SVG Export Plug-In . SVG Version: 6.00 Build 0)  -->
<svg version="1.1" id="Layer_1" xmlns="http://www.w3.org/2000/svg" xmlns:xlink="http://www.w3.org/1999/xlink" x="0px" y="0px"
	 viewBox="0 0 1348.7 1301.8" style="enable-background:new 0 0 1348.7 1301.8;" xml:space="preserve">
<style type="text/css">
	.st0{fill:#F39200;}
	.st1{fill:#FCEA10;}
	.st2{fill:#F9B233;}
	.st3{fill:#2D2E83;}
	.st4{fill:#A3195B;}
	.st5{fill:#1D71B8;}
	.st6{fill:#95C11F;}
	.st7{fill:#00A19A;}
	.st8{fill:#662483;}
	.st9{fill:#36A9E1;}
	.st10{fill:#3AAA35;}
	.st11{fill:#E6332A;}
	.st12{fill:none;stroke:#000000;stroke-width:0.5;stroke-linecap:round;stroke-miterlimit:10;}
</style>
<g>
	<g>
		<path class="st0" d="M1212.7,507.3c-22.7,0-42.8-5.1-53.4-19.7c-0.7-0.9-0.4-2.2,0.5-2.8c0.9-0.7,2.2-0.5,2.8,0.5
			c31.4,43.7,160.8-6,162.1-6.5c1-0.4,2.2,0.1,2.6,1.2c0.4,1-0.1,2.2-1.2,2.6C1322.5,483.9,1261.6,507.3,1212.7,507.3z"/>
	</g>
	<g>
		<path class="st1" d="M1070.5,604.1c-0.9,0-1.8-0.7-2-1.6c-3-14-0.7-26.7,6.7-37.7c18-26.8,59.9-34.6,61.7-34.9
			c1.1-0.2,2.2,0.5,2.4,1.6c0.2,1.1-0.5,2.2-1.6,2.4c-0.4,0.1-42,7.8-59,33.2c-6.8,10.1-8.8,21.7-6.1,34.6c0.2,1.1-0.5,2.2-1.6,2.4
			C1070.7,604.1,1070.6,604.1,1070.5,604.1z"/>
	</g>
	<g>
		<path class="st1" d="M1129.3,454.8c-24.7,0-54.9-6.3-62.6-35.3c-0.3-1.1,0.4-2.2,1.4-2.5c1.1-0.3,2.2,0.4,2.5,1.4
			c12.4,46.4,91.4,29,92.2,28.8c1.1-0.3,2.2,0.4,2.4,1.5c0.2,1.1-0.4,2.2-1.5,2.4C1162.3,451.5,1147.2,454.8,1129.3,454.8z"/>
	</g>
	<g>
		<path class="st2" d="M1215.3,372.9c-37.7,0-80.6-4-100.9-20c-0.9-0.7-1-2-0.3-2.9c0.7-0.9,2-1,2.9-0.3
			c38.3,30.1,166,15.4,167.3,15.2c1.1-0.2,2.1,0.7,2.3,1.8c0.1,1.1-0.7,2.1-1.8,2.3C1282.1,369.3,1251,372.9,1215.3,372.9z"/>
	</g>
	<g>
		<path class="st1" d="M1113.6,423.6c-36.7,0-69.6-4-88.4-15.4c-1-0.6-1.3-1.8-0.7-2.8c0.6-1,1.8-1.3,2.8-0.7
			c59.3,36,270.5-5.4,272.7-5.8c1.1-0.2,2.2,0.5,2.4,1.6c0.2,1.1-0.5,2.2-1.6,2.4C1294.7,404,1194.9,423.6,1113.6,423.6z"/>
	</g>
	<g>
		<path class="st3" d="M901.9,418.5c-0.2,0-0.4,0-0.6-0.1c-54.5-15.6-55-62.9-55-63.3c0-1.1,0.9-2,2-2h0c1.1,0,2,0.9,2,2
			c0,1.8,0.6,44.7,52.1,59.4c1.1,0.3,1.7,1.4,1.4,2.5C903.6,417.9,902.8,418.5,901.9,418.5z"/>
	</g>
	<g>
		<path class="st4" d="M797.1,157.9c-0.9,0.1-1.8-0.5-2.1-1.4c-0.3-1.1,0.2-2.2,1.3-2.6c43.8-14.2,46.4-71.5,46.4-72.1
			c0-1.1,1.1-2,2.1-2c1.1,0,2,1,2,2.1c0,0.6-2.6,60.7-49.2,75.8C797.4,157.9,797.2,157.9,797.1,157.9z"/>
	</g>
	<g>
		<path class="st5" d="M734.4,171.1C734.3,171.1,734.3,171.1,734.4,171.1c-1.2-0.1-2.1-1-2-2.1c2.6-56.1,28.2-127,28.4-127.7
			c0.4-1.1,1.5-1.6,2.6-1.2c1.1,0.4,1.6,1.5,1.2,2.6c-0.3,0.7-25.6,71-28.2,126.5C736.3,170.2,735.4,171.1,734.4,171.1z"/>
	</g>
	<g>
		<path class="st5" d="M687.1,142.4c-0.2,0-0.5,0-0.7-0.1c-88.4-34.4-71.1-99.7-70.9-100.3c0.3-1.1,1.4-1.7,2.5-1.4
			c1.1,0.3,1.7,1.4,1.4,2.5c-0.7,2.5-16.4,62.4,68.5,95.4c1,0.4,1.6,1.6,1.2,2.6C688.7,141.9,687.9,142.4,687.1,142.4z"/>
	</g>
	<g>
		<path class="st6" d="M420.4,208.4c-111.7,0-143.9-71.3-144.3-72.1c-0.4-1,0-2.2,1.1-2.7c1-0.4,2.2,0,2.7,1.1
			c0.3,0.7,32.1,70.4,142.6,69.6c0,0,0,0,0,0c1.1,0,2,0.9,2,2c0,1.1-0.9,2-2,2C421.8,208.4,421.1,208.4,420.4,208.4z"/>
	</g>
	<g>
		<path class="st7" d="M433,256.5c-21.5,0-28.6-11.3-29-12c-0.6-1-0.2-2.2,0.7-2.8c1-0.6,2.2-0.2,2.8,0.7c0.2,0.3,16.8,26,80.5-6.7
			c1-0.5,2.2-0.1,2.7,0.9c0.5,1,0.1,2.2-0.9,2.7C464.4,252.4,446,256.5,433,256.5z"/>
	</g>
	<g>
		<path class="st7" d="M524.4,250.2c-0.2,0-0.3,0-0.5-0.1C391,217.8,305.7,112,304.8,110.9c-0.7-0.9-0.6-2.2,0.3-2.9
			c0.9-0.7,2.2-0.6,2.9,0.3c0.8,1.1,85.4,105.7,216.9,137.8c1.1,0.3,1.8,1.4,1.5,2.5C526.2,249.6,525.3,250.2,524.4,250.2z"/>
	</g>
	<g>
		<path class="st8" d="M397.1,135.8c-0.1,0-0.1,0-0.2,0c-42-4-65.8-52.5-66.8-54.5c-0.5-1-0.1-2.2,0.9-2.7c1-0.5,2.2-0.1,2.7,0.9
			c0.2,0.5,23.8,48.5,63.5,52.2c1.1,0.1,1.9,1.1,1.8,2.2C399,135,398.1,135.8,397.1,135.8z"/>
	</g>
	<g>
		<path class="st7" d="M446.6,137.5c-0.2,0-0.4,0-0.6-0.1c-48-14.3-57.5-88.3-57.9-91.5c-0.1-1.1,0.7-2.1,1.8-2.3
			c1.1-0.2,2.1,0.7,2.3,1.8c0.1,0.7,9.6,74.5,55,88.1c1.1,0.3,1.7,1.5,1.4,2.5C448.3,137,447.5,137.5,446.6,137.5z"/>
	</g>
	<g>
		<path class="st9" d="M467.9,181c-0.1,0-0.3,0-0.5-0.1C384.2,161.8,357.1,63.5,356.8,62.5c-0.3-1.1,0.4-2.2,1.4-2.5
			c1.1-0.3,2.2,0.4,2.5,1.4c0.3,1,26.7,96.9,107.6,115.5c1.1,0.2,1.8,1.3,1.5,2.4C469.7,180.3,468.8,181,467.9,181z"/>
	</g>
	<g>
		<path class="st9" d="M237.3,239.1c-0.8,0-1.6-0.5-1.9-1.3c-19.5-54.7-64.2-60-64.7-60.1c-1.1-0.1-1.9-1.1-1.8-2.2
			c0.1-1.1,1.1-1.9,2.2-1.8c0.5,0,47.7,5.5,68.1,62.8c0.4,1.1-0.2,2.2-1.2,2.6C237.8,239,237.5,239.1,237.3,239.1z"/>
	</g>
	<g>
		<path class="st10" d="M272.6,379.5c-1.1,0-2-0.8-2-1.9c-0.1-1.1,0.8-2.1,1.9-2.1c1.4-0.1,35.2-2.3,44-49.8
			c0.2-1.1,1.3-1.8,2.4-1.6c1.1,0.2,1.8,1.3,1.6,2.4C311,377.1,273.1,379.5,272.6,379.5C272.7,379.5,272.6,379.5,272.6,379.5z"/>
	</g>
	<g>
		<path class="st7" d="M90.6,346.5c-29.9,0-46.4-8.9-47.5-9.5c-1-0.5-1.3-1.8-0.8-2.8c0.5-1,1.8-1.3,2.8-0.8
			c0.4,0.2,42.4,22.6,114.3-4.9c1-0.4,2.2,0.1,2.6,1.2c0.4,1-0.1,2.2-1.2,2.6C132.7,343.1,109.1,346.5,90.6,346.5z"/>
	</g>
	<g>
		<path class="st6" d="M70.7,447.4c-32.5,0-54.1-7.2-54.5-7.3c-1.1-0.4-1.6-1.5-1.3-2.6c0.4-1.1,1.5-1.6,2.6-1.3
			c0.8,0.3,82.7,27.5,168.7-26.3c1-0.6,2.2-0.3,2.8,0.6c0.6,0.9,0.3,2.2-0.6,2.8C145,440.5,102.6,447.4,70.7,447.4z"/>
	</g>
	<g>
		<path class="st10" d="M272.6,476c-0.9,0-1.8-0.7-2-1.6c-0.2-1.1,0.5-2.2,1.6-2.4c0.4-0.1,44.7-10,48.5-49.3
			c0.1-1.1,1.2-1.9,2.2-1.8c1.1,0.1,1.9,1.1,1.8,2.2c-4,42.4-51.2,52.8-51.7,52.9C272.9,476,272.7,476,272.6,476z"/>
	</g>
	<g>
		<path class="st10" d="M21.4,478.8c-0.2,0-0.5,0-0.6,0c-1.1,0-2-0.9-2-2c0-1.1,0.9-2,2-2h0c0,0,0,0,0.1,0
			c5.9,0,297.1-0.9,340.8-92.2c0.5-1,1.7-1.4,2.7-1c1,0.5,1.4,1.7,1,2.7C320.9,477.2,40.4,478.8,21.4,478.8z"/>
	</g>
	<g>
		<path class="st9" d="M400.4,420c-0.5,0-1-0.2-1.4-0.6c-0.8-0.8-0.8-2.1,0-2.9c0.3-0.3,25.9-26.4,28.6-63.5c0.1-1.1,1.1-2,2.2-1.9
			c1.1,0.1,2,1.1,1.9,2.2c-2.8,38.7-28.7,65-29.8,66.1C401.4,419.8,400.9,420,400.4,420z"/>
	</g>
	<g>
		<path class="st6" d="M56,616.4c-0.5,0-1-0.2-1.4-0.6c-0.8-0.8-0.8-2.1-0.1-2.9c0.3-0.3,32.4-33.4,90.4-6c1,0.5,1.5,1.7,1,2.7
			c-0.5,1-1.7,1.4-2.7,1c-55.2-26.1-84.5,3.8-85.8,5.1C57.1,616.2,56.6,616.4,56,616.4z"/>
	</g>
	<g>
		<path class="st6" d="M316.2,585.8c-0.6,0-1.3-0.3-1.7-0.8c-50-69.7-280.8-11.6-283.1-11c-1.1,0.3-2.2-0.4-2.5-1.5
			c-0.3-1.1,0.4-2.2,1.5-2.5c9.6-2.5,235.8-59.3,287.4,12.6c0.7,0.9,0.4,2.2-0.5,2.8C317,585.7,316.6,585.8,316.2,585.8z"/>
	</g>
	<g>
		<path class="st10" d="M110.7,684.5c-1,0-1.9-0.7-2-1.7c-0.1-0.7,0.5-1.7,1-2.1c0.9-0.8,101.6-78.5,174.6-55.5
			c1.1,0.3,1.7,1.5,1.3,2.5c-0.3,1.1-1.5,1.7-2.5,1.3c-70.5-22.2-168.2,52.6-170.8,54.8c-0.3,0.3-0.7,0.6-1.2,0.7
			C110.9,684.5,110.8,684.5,110.7,684.5z"/>
	</g>
	<g>
		<path class="st9" d="M80.1,646c-0.6,0-1.3-0.3-1.7-0.9c-0.6-0.9-0.4-2.2,0.5-2.8c1.8-1.3,180-125.3,305.5-28.3
			c0.9,0.7,1.1,2,0.4,2.8c-0.7,0.9-2,1.1-2.8,0.4C258.8,522,83,644.4,81.3,645.6C80.9,645.9,80.5,646,80.1,646z"/>
	</g>
	<g>
		<path class="st9" d="M323,828.5c-0.8,0-1.5-0.4-1.8-1.2c-0.5-1,0-2.2,1-2.7c0.5-0.2,46.8-22.4,52.9-60.5c0.2-1.1,1.3-1.9,2.3-1.7
			c1.1,0.2,1.9,1.2,1.7,2.3c-6.5,40.2-53.2,62.6-55.2,63.5C323.6,828.5,323.3,828.5,323,828.5z"/>
	</g>
	<g>
		<path class="st5" d="M355,846.7c-0.5,0-1-0.2-1.4-0.6c-0.8-0.8-0.8-2.1-0.1-2.9c0.6-0.7,63.7-67.3,82.9-131.5
			c0.3-1.1,1.4-1.7,2.5-1.4c1.1,0.3,1.7,1.5,1.4,2.5c-19.4,65.1-83.2,132.5-83.8,133.1C356.1,846.5,355.6,846.7,355,846.7z"/>
	</g>
	<g>
		<path class="st3" d="M534.1,881.3c-0.2,0-0.3,0-0.5-0.1c-1.1-0.3-1.8-1.4-1.5-2.5c0.8-3.5,21.3-86.1,78.7-106.4
			c1.1-0.4,2.2,0.2,2.6,1.2c0.4,1.1-0.2,2.2-1.2,2.6c-55.3,19.5-75.9,102.6-76.1,103.5C535.9,880.7,535,881.3,534.1,881.3z"/>
	</g>
	<g>
		<path class="st3" d="M398.9,854.3c-0.2,0-0.4,0-0.6-0.1c-1.1-0.3-1.7-1.4-1.4-2.5c0.4-1.4,41.9-141.3,131.9-162.1
			c1.1-0.2,2.2,0.4,2.4,1.5c0.2,1.1-0.4,2.2-1.5,2.4c-87.7,20.2-128.5,157.9-128.9,159.3C400.6,853.7,399.8,854.3,398.9,854.3z"/>
	</g>
	<g>
		<path class="st8" d="M675.9,880.1l-0.7-1.9l1.5-1.4l-1.5,1.4l-1-1.8c0.3-0.2,30.5-18.8,29.7-63.4c0-1.1,0.9-2,2-2.1
			c1.2,0.1,2,0.9,2.1,2C708.8,860.4,676.2,880,675.9,880.1z"/>
	</g>
	<g>
		<path class="st3" d="M733.9,929c-0.1,0-0.3,0-0.4,0c-1.1-0.2-1.8-1.3-1.6-2.4c0.1-0.4,7.8-36.2,47.7-35.6c1.1,0,2,0.9,2,2.1
			c0,1.1-1,2-2.1,2c-0.3,0-0.7,0-1,0c-35.7,0-42.4,31-42.6,32.3C735.7,928.3,734.9,929,733.9,929z"/>
	</g>
	<g>
		<path class="st1" d="M1086.3,958.1c-0.9,0-1.7-0.6-1.9-1.5c-1-3.5-24.9-85.7-5.1-135.3c0.4-1,1.6-1.5,2.6-1.1
			c1,0.4,1.5,1.6,1.1,2.6c-19.3,48.3,5,131.8,5.2,132.6c0.3,1.1-0.3,2.2-1.4,2.5C1086.7,958.1,1086.5,958.1,1086.3,958.1z"/>
	</g>
	<g>
		<path class="st11" d="M1153.5,934.1c-0.1,0-0.2,0-0.3,0c-1.1-0.2-1.9-1.2-1.7-2.3c0.2-1.3,3.5-31.2-44.2-49.4
			c-1-0.4-1.6-1.6-1.2-2.6c0.4-1,1.6-1.6,2.6-1.2c50.8,19.3,46.9,52.3,46.7,53.7C1155.4,933.3,1154.5,934.1,1153.5,934.1z"/>
	</g>
	<g>
		<path class="st0" d="M1225.2,855.5c-0.2,0-0.4,0-0.6-0.1c-1.5-0.5-36.2-11.8-49.4-43.4c-8.6-20.5-5.9-44.6,8-71.7
			c0.5-1,1.8-1.4,2.7-0.9c1,0.5,1.4,1.7,0.9,2.7c-13.3,26-15.9,48.9-7.9,68.3c12.4,29.8,46.5,41,46.8,41.1c1.1,0.3,1.7,1.5,1.3,2.6
			C1226.9,854.9,1226.1,855.5,1225.2,855.5z"/>
	</g>
	<g>
		<path class="st0" d="M1135.4,615.4c-0.3,0-0.7-0.1-1-0.2c-1-0.5-1.3-1.8-0.8-2.8c30.1-55,185.2-60,191.8-60.2
			c1.1-0.1,2.1,0.9,2.1,2c0,1.1-0.9,2.1-2,2.1c-1.6,0-159.4,5.1-188.4,58.1C1136.8,615,1136.1,615.4,1135.4,615.4z"/>
	</g>
	<g>
		<path class="st12" d="M667.1,46.2"/>
	</g>
	<g>
		<path class="st5" d="M719,198.7c-0.9,0-1.7-0.6-1.9-1.5C698.5,134.4,695.3,42.9,695.3,42c0-1.1,0.8-2.1,2-2.1c1.3,0,2.1,0.8,2.1,2
			c0,0.9,3.2,91.8,21.6,154.2c0.3,1.1-0.3,2.2-1.4,2.5C719.4,198.6,719.2,198.7,719,198.7z"/>
	</g>
	<g>
		<path class="st8" d="M778.3,410.4c-0.9,0-1.8-0.6-2-1.6c-32.9-139.6-59.1-346.9-59.3-349c-0.1-1.1,0.7-2.1,1.8-2.3
			c1.1-0.2,2.1,0.6,2.3,1.8c0.3,2.1,26.4,209.2,59.3,348.6c0.3,1.1-0.4,2.2-1.5,2.4C778.6,410.4,778.5,410.4,778.3,410.4z"/>
	</g>
	<g>
		<path class="st8" d="M751.9,279.2c-1,0-1.9-0.8-2-1.9c-8.2-100.9,44-256.7,44.5-258.2c0.4-1.1,1.5-1.6,2.6-1.3
			c1.1,0.4,1.6,1.5,1.3,2.6c-0.5,1.6-52.4,156.6-44.3,256.6c0.1,1.1-0.7,2.1-1.9,2.2C752,279.2,752,279.2,751.9,279.2z"/>
	</g>
	<g>
		<path class="st9" d="M730,236c-0.9,0-1.7-0.6-2-1.5c-20.5-70.4-88.8-165.4-89.5-166.4c-0.7-0.9-0.5-2.2,0.5-2.8
			c0.9-0.7,2.2-0.5,2.8,0.5c0.7,1,69.4,96.5,90.1,167.6c0.3,1.1-0.3,2.2-1.4,2.5C730.3,236,730.1,236,730,236z"/>
	</g>
	<g>
		<path class="st12" d="M578.4,42.5"/>
	</g>
	<g>
		<path class="st9" d="M747,294.1c-0.5,0-0.9-0.2-1.3-0.5C618.6,182.9,576.9,44.5,576.5,43.1c-0.3-1.1,0.3-2.2,1.4-2.5
			c1.1-0.3,2.2,0.3,2.5,1.4c0.4,1.4,41.9,138.7,168,248.6c0.8,0.7,0.9,2,0.2,2.9C748.1,293.9,747.6,294.1,747,294.1z"/>
	</g>
	<g>
		<path class="st11" d="M950.3,279.2c-0.8,0-1.5-0.4-1.8-1.2C930.5,240.3,935,73.7,935.2,66.6c0-1.1,0.9-2,2.1-2c1.1,0,2,1,2,2.1
			c0,1.7-4.6,172.7,12.9,209.6c0.5,1,0.1,2.2-1,2.7C950.9,279.1,950.6,279.2,950.3,279.2z"/>
	</g>
	<g>
		<path class="st0" d="M956.3,196.1c-0.7,0-1.4-0.4-1.7-1c-0.6-1-0.3-2.2,0.7-2.8c25.7-15.3,42.3-83.3,42.4-84
			c0.3-1.1,1.3-1.7,2.5-1.5c1.1,0.3,1.8,1.4,1.5,2.5c-0.7,2.9-17.2,70.4-44.3,86.6C957.1,196,956.7,196.1,956.3,196.1z"/>
	</g>
	<g>
		<path class="st4" d="M943.5,372.2c-0.7,0-1.4-0.4-1.8-1.1C902.5,297.5,905.8,46,906,35.3c0-1.1,0.9-2,2-2c0,0,0,0,0,0
			c1.1,0,2,0.9,2,2.1c0,2.6-3.5,261.1,35.2,333.8c0.5,1,0.2,2.2-0.8,2.7C944.1,372.1,943.8,372.2,943.5,372.2z"/>
	</g>
	<g>
		<path class="st3" d="M935.2,519.6c-0.8,0-1.5-0.4-1.8-1.2c-75.7-162.1-65.8-488.9-65.7-492.2c0-1.1,0.8-2,2.1-2c1.1,0,2,1,2,2.1
			c-0.1,3.3-10,329,65.3,490.3c0.5,1,0,2.2-1,2.7C935.8,519.5,935.5,519.6,935.2,519.6z"/>
	</g>
	<g>
		<path class="st4" d="M772.3,387.2c-1,0-1.9-0.8-2-1.9C756.6,226.3,832.6,17,833.4,15c0.4-1.1,1.6-1.6,2.6-1.2
			c1.1,0.4,1.6,1.6,1.2,2.6c-0.8,2.1-76.5,210.5-62.8,368.7c0.1,1.1-0.7,2.1-1.8,2.2C772.5,387.2,772.4,387.2,772.3,387.2z"/>
	</g>
	<g>
		<path class="st11" d="M948.7,318.5c-1,0-1.8-0.7-2-1.7c-8.2-49,82.8-190.9,86.7-197c0.6-0.9,1.9-1.2,2.8-0.6
			c0.9,0.6,1.2,1.9,0.6,2.8c-0.9,1.5-94.1,146.7-86.1,194.1c0.2,1.1-0.6,2.2-1.7,2.3C948.9,318.5,948.8,318.5,948.7,318.5z"/>
	</g>
	<g>
		<path class="st11" d="M1109.3,237c-0.3,0-0.7-0.1-1-0.3c-1-0.6-1.3-1.8-0.8-2.8c18.5-32.5,50.7-23.3,51.1-23.2
			c1.1,0.3,1.7,1.4,1.4,2.5c-0.3,1.1-1.5,1.7-2.5,1.4c-1.2-0.4-29.5-8.3-46.4,21.3C1110.7,236.7,1110,237,1109.3,237z"/>
	</g>
	<g>
		<path class="st8" d="M1072.7,261c-1,0-1.9-0.8-2-1.9c-4-48.2,48.7-70.1,49.3-70.3c1-0.4,2.2,0.1,2.6,1.1c0.4,1-0.1,2.2-1.1,2.6
			c-0.5,0.2-50.5,21-46.7,66.2c0.1,1.1-0.7,2.1-1.9,2.2C1072.8,261,1072.7,261,1072.7,261z"/>
	</g>
	<g>
		<path class="st8" d="M1035.1,323.3c-0.9,0-1.7-0.6-2-1.5c-14.9-54,58.6-158.7,61.8-163.2c0.7-0.9,1.9-1.1,2.8-0.5
			c0.9,0.7,1.1,1.9,0.5,2.8c-0.8,1.1-75.5,107.5-61.2,159.7c0.3,1.1-0.3,2.2-1.4,2.5C1035.5,323.3,1035.3,323.3,1035.1,323.3z"/>
	</g>
	<g>
		<path class="st4" d="M1001.3,428.1c-0.8,0-1.5-0.4-1.8-1.2c-55.7-115.6,70.3-289.8,71.6-291.5c0.7-0.9,1.9-1.1,2.8-0.4
			c0.9,0.7,1.1,1.9,0.4,2.8c-1.3,1.7-125.9,174-71.2,287.4c0.5,1,0.1,2.2-0.9,2.7C1001.9,428,1001.6,428.1,1001.3,428.1z"/>
	</g>
	<g>
		<path class="st0" d="M1180.6,276.8c-26,0-83.6-3.4-92.1-32.8c-0.3-1.1,0.3-2.2,1.4-2.5c1.1-0.3,2.2,0.3,2.5,1.4
			c9.9,34.3,99.6,29.6,100.5,29.6c1.3,0,2.1,0.8,2.1,1.9c0.1,1.1-0.8,2.1-1.9,2.1C1192.4,276.5,1187.6,276.8,1180.6,276.8z"/>
	</g>
	<g>
		<path class="st2" d="M1019.5,364.5c-0.1,0-0.2,0-0.4,0c-1.1-0.2-1.8-1.3-1.6-2.4c10.4-57.8,209.1-70.8,217.6-71.3
			c1.2-0.1,2.1,0.8,2.2,1.9c0.1,1.1-0.8,2.1-1.9,2.2c-2,0.1-204,13.3-213.8,68C1021.3,363.8,1020.4,364.5,1019.5,364.5z"/>
	</g>
	<g>
		<path class="st0" d="M1226.8,782.6c-0.7,0-1.4-0.4-1.8-1c-4.1-7.5-40.3-73.6-34.6-88.1c0.4-1,1.6-1.6,2.6-1.1
			c1,0.4,1.6,1.6,1.1,2.6c-3.8,9.6,18.5,55.9,34.4,84.7c0.5,1,0.2,2.2-0.8,2.8C1227.4,782.5,1227.1,782.6,1226.8,782.6z"/>
	</g>
	<g>
		<path class="st1" d="M1217.1,824.2c-0.8,0-1.5-0.4-1.8-1.2c-2-4.4-49.2-108.9-45.1-143.8c0.1-1.1,1.1-2,2.3-1.8
			c1.1,0.1,1.9,1.1,1.8,2.3c-4,33.7,44.2,140.5,44.7,141.6c0.5,1,0,2.2-1,2.7C1217.6,824.1,1217.4,824.2,1217.1,824.2z"/>
	</g>
	<g>
		<path class="st1" d="M1275.6,732.3c-0.7,0-1.4-0.4-1.8-1c-0.7-1.1-16.9-27.6-58.3-14.7c-1,0.4-2.2-0.3-2.5-1.3
			c-0.3-1.1,0.3-2.2,1.3-2.5c44.6-13.9,62.9,16.2,63,16.5c0.6,1,0.2,2.2-0.7,2.8C1276.3,732.2,1276,732.3,1275.6,732.3z"/>
	</g>
	<g>
		<path class="st0" d="M1319.4,709.2c-0.6,0-1.3-0.3-1.7-0.9c-0.2-0.3-24.1-34.8-62.3-40.8c-23.1-3.7-46.8,3.6-70.4,21.8
			c-0.9,0.7-2.2,0.5-2.8-0.4c-0.7-0.9-0.5-2.2,0.4-2.8c24.5-18.8,49.3-26.4,73.6-22.5c39.9,6.4,64,41.1,65,42.6
			c0.6,0.9,0.4,2.2-0.5,2.8C1320.2,709.1,1319.8,709.2,1319.4,709.2z"/>
	</g>
	<g>
		<path class="st0" d="M1331,668.1c-0.4,0-0.9-0.1-1.2-0.4c-1-0.8-103.5-78.3-191.3-4.1c-0.9,0.7-2.1,0.6-2.9-0.2
			c-0.7-0.9-0.6-2.1,0.2-2.9c90.4-76.4,195.3,3.2,196.4,4c0.9,0.7,1.1,2,0.4,2.8C1332.2,667.9,1331.6,668.1,1331,668.1z"/>
	</g>
	<g>
		<path class="st2" d="M1115.6,659.2c-0.4,0-0.8-0.1-1.1-0.3c-0.9-0.6-1.2-1.9-0.6-2.8c46.8-69.8,212.5-32.5,219.5-30.9
			c1.1,0.3,1.8,1.3,1.5,2.4c-0.3,1.1-1.3,1.8-2.4,1.5c-1.7-0.4-170-38.3-215.3,29.2C1116.9,658.9,1116.2,659.2,1115.6,659.2z"/>
	</g>
	<g>
		<path class="st0" d="M1128.2,952.5c-0.9,0-1.8-0.7-2-1.6c-0.3-1.5-32.3-150.9-87.2-164.7c-16.2-4.1-33.1,4.3-50.4,24.9
			c-0.7,0.9-2,1-2.9,0.2c-0.9-0.7-1-2-0.2-2.9c18.3-21.9,36.7-30.7,54.5-26.2c57.4,14.4,88.9,161.5,90.2,167.8
			c0.2,1.1-0.5,2.2-1.6,2.4C1128.5,952.5,1128.4,952.5,1128.2,952.5z"/>
	</g>
	<g>
		<path class="st11" d="M1201.4,882.7c-0.2,0-0.3,0-0.5-0.1c-1-0.2-100.9-27.2-79.2-224.5c0.1-1.1,1.1-1.9,2.2-1.8
			c1.1,0.1,1.9,1.1,1.8,2.2c-21.2,193.8,75.2,219.9,76.2,220.1c1.1,0.3,1.8,1.4,1.5,2.5C1203.2,882.1,1202.3,882.7,1201.4,882.7z"/>
	</g>
	<g>
		<path class="st0" d="M1179.7,909.3c-0.7,0-1.4-0.3-1.7-1c-1-1.6-96.1-159-150.1-166.5c-7.4-1-13.4,0.8-18.5,5.6
			c-0.8,0.8-2.1,0.7-2.9-0.1c-0.8-0.8-0.7-2.1,0.1-2.9c6-5.6,13.3-7.9,21.9-6.7c56,7.7,149.1,161.8,153.1,168.4
			c0.6,1,0.3,2.2-0.7,2.8C1180.4,909.2,1180.1,909.3,1179.7,909.3z"/>
	</g>
	<g>
		<path class="st0" d="M1055,973.8c-0.9,0-1.8-0.7-2-1.6c-1.1-5.6-27.4-138.9,0.3-181.5c0.6-0.9,1.9-1.2,2.8-0.6
			c0.9,0.6,1.2,1.9,0.6,2.8c-26.8,41.2,0,177.1,0.3,178.5c0.2,1.1-0.5,2.2-1.6,2.4C1055.3,973.8,1055.2,973.8,1055,973.8z"/>
	</g>
	<g>
		<path class="st1" d="M1013.1,983.1c-0.9,0-1.8-0.7-2-1.6c-0.2-0.7-0.2-1.5,0.2-9.9c3.2-80.3-1.8-123.8-15.1-129.3
			c-4.2-1.8-9.7,1-16.4,8.1c-0.8,0.8-2,0.9-2.9,0.1c-0.8-0.8-0.9-2.1-0.1-2.9c7.9-8.5,14.9-11.5,20.9-9
			c20.2,8.4,19.7,80.1,17.6,133.2c-0.2,4.4-0.3,8.2-0.3,8.8c0.3,1.1-0.3,2.1-1.4,2.4C1013.5,983.1,1013.3,983.1,1013.1,983.1z"/>
	</g>
	<g>
		<path class="st0" d="M997.5,1020c-1.1,0-2-0.8-2-1.9c-2-29.9-9.1-78.1-19.7-80.6c-2.7-0.6-6.3,2.6-10,9.1c-0.6,1-1.8,1.3-2.8,0.7
			c-1-0.6-1.3-1.8-0.7-2.8c4.9-8.5,9.7-12.1,14.5-11c17.1,4,22.3,76.1,22.9,84.3c0.1,1.1-0.8,2.1-1.9,2.2
			C997.6,1020,997.5,1020,997.5,1020z"/>
	</g>
	<g>
		<path class="st1" d="M981.8,1059.5c-1,0-1.9-0.8-2-1.8c-3.2-25.9-9.8-54.3-14.9-55c-0.8-0.1-2.4,1.2-4.6,6.4
			c-0.4,1-1.6,1.5-2.7,1.1c-1-0.4-1.5-1.6-1.1-2.7c1-2.4,3.9-9.5,8.9-8.9c10.6,1.5,16.8,45.2,18.4,58.6c0.1,1.1-0.7,2.1-1.8,2.3
			C982,1059.5,981.9,1059.5,981.8,1059.5z"/>
	</g>
	<g>
		<path class="st0" d="M980.7,1097.1c-0.9,0-1.7-0.6-2-1.5c-3.9-13.7-11.9-33.4-17.7-34.1c-1.3-0.2-2.7,0.9-4.1,3.3
			c-0.6,1-1.8,1.3-2.8,0.7c-1-0.6-1.3-1.8-0.7-2.8c2.3-3.9,5.1-5.7,8.1-5.3c10.5,1.4,19.4,31.1,21.1,37.1c0.3,1.1-0.3,2.2-1.4,2.5
			C981.1,1097,980.9,1097.1,980.7,1097.1z"/>
	</g>
	<g>
		<path class="st0" d="M977.5,1135c-0.8,0-1.6-0.5-1.9-1.4c-1.7-4.8-7.6-17.8-14.2-19.3c-2.2-0.5-4.4,0.3-6.6,2.5
			c-0.8,0.8-2.1,0.8-2.9,0c-0.8-0.8-0.8-2.1,0-2.9c3.3-3.2,6.8-4.4,10.4-3.5c10,2.4,16.4,19.9,17.1,21.9c0.4,1.1-0.2,2.2-1.2,2.6
			C978,1134.9,977.8,1135,977.5,1135z"/>
	</g>
	<g>
		<path class="st0" d="M994.7,456c-0.3,0-0.5-0.1-0.8-0.2c-1-0.4-1.5-1.6-1.1-2.7c58.1-136.1,277.8-127.9,280-127.7
			c1.1,0,2,1,1.9,2.1c0,1.1-0.9,2-2.1,1.9c-2.2-0.1-219.1-8.2-276.1,125.3C996.3,455.6,995.5,456,994.7,456z"/>
	</g>
	<g>
		<path class="st1" d="M953.1,752.8c-0.3,0-0.5,0-0.8-0.1c-1-0.4-1.5-1.6-1.1-2.6c68.3-170.5,371.4-162.9,374.4-162.8
			c1.1,0,2,1,2,2.1c0,1.1-1,2-2.1,2c-3-0.1-303.2-7.6-370.5,160.3C954.7,752.4,953.9,752.8,953.1,752.8z"/>
	</g>
	<g>
		<path class="st1" d="M1014.3,673.3c-0.1,0-0.2,0-0.3,0c-1.1-0.2-1.8-1.2-1.7-2.3c18.3-107.3,306.1-157.3,318.4-159.4
			c1.1-0.2,2.2,0.6,2.3,1.7c0.2,1.1-0.6,2.2-1.7,2.3c-3,0.5-297.3,51.5-315.1,156C1016.1,672.6,1015.3,673.3,1014.3,673.3z"/>
	</g>
	<g>
		<path class="st1" d="M1022.3,511.7c-14.2,0-26.4-1.4-35.9-4.7c-1.1-0.4-1.6-1.5-1.3-2.6c0.4-1.1,1.5-1.6,2.6-1.3
			c73.4,25.5,324.4-65.8,326.9-66.7c1.1-0.4,2.2,0.2,2.6,1.2c0.4,1.1-0.2,2.2-1.2,2.6C1307,443.6,1119.6,511.7,1022.3,511.7z"/>
	</g>
	<g>
		<path class="st7" d="M591.3,210.8c-0.1,0-0.2,0-0.4,0c-138.8-25.2-135.4-130.9-135.4-132c0.1-1.1,1-2.1,2.1-1.9
			c1.1,0.1,2,1,1.9,2.1c0,1-3.2,103.3,132,127.8c1.1,0.2,1.8,1.3,1.6,2.4C593.1,210.1,592.2,210.8,591.3,210.8z"/>
	</g>
	<g>
		<path class="st9" d="M560.1,173.9c-0.1,0-0.3,0-0.5-0.1c-1.1-0.2-1.8-1.3-1.5-2.4c10.2-44.7-42.7-87.1-43.2-87.5
			c-0.9-0.7-1-2-0.3-2.9c0.7-0.9,2-1,2.9-0.3c2.3,1.8,55.4,44.4,44.6,91.6C561.8,173.3,561,173.9,560.1,173.9z"/>
	</g>
	<g>
		<path class="st3" d="M623.9,254.5c-1,0-1.9-0.8-2-1.9C612.5,145,538,56.1,537.2,55.2c-0.7-0.9-0.6-2.1,0.2-2.9
			c0.9-0.7,2.1-0.6,2.9,0.2c0.8,0.9,76.1,90.9,85.6,199.8c0.1,1.1-0.7,2.1-1.8,2.2C624,254.5,623.9,254.5,623.9,254.5z"/>
	</g>
	<g>
		<path class="st6" d="M667.1,326c-0.2,0-0.4,0-0.5-0.1c-227.4-63.2-240.9-264.3-241-266.3c-0.1-1.1,0.8-2.1,1.9-2.1
			c1.3,0,2.1,0.8,2.1,1.9c0.1,2,13.5,200.2,238,262.6c1.1,0.3,1.7,1.4,1.4,2.5C668.8,325.4,668,326,667.1,326z"/>
	</g>
	<g>
		<path class="st3" d="M656.6,848c-0.5,0-1-0.2-1.4-0.5c-0.8-0.8-0.9-2-0.2-2.9c0.7-0.7,67.9-74.3,140.5-19c0.9,0.7,1.1,2,0.4,2.8
			c-0.7,0.9-2,1.1-2.8,0.4c-69.5-53-132.3,15.5-135,18.4C657.8,847.8,657.2,848,656.6,848z"/>
	</g>
	<g>
		<path class="st1" d="M829.8,1103.9c-0.5,0-1.1-0.2-1.5-0.6c-0.8-0.8-0.8-2.1,0.1-2.9c0.5-0.5,12-11.5,21.2-10.7
			c2.9,0.3,5.3,1.6,7,4.1c0.7,0.9,0.4,2.2-0.5,2.8c-0.9,0.6-2.2,0.4-2.8-0.5c-1.1-1.5-2.4-2.3-4.1-2.4c-5.9-0.5-15,6.7-18,9.5
			C830.8,1103.7,830.3,1103.9,829.8,1103.9z"/>
	</g>
	<g>
		<path class="st8" d="M823.9,1065.8c-0.3,0-0.5,0-0.8-0.1c-1-0.4-1.5-1.6-1.1-2.6c0.2-0.5,4.9-11.9,13.7-12.8
			c5.8-0.6,11.8,3.6,17.7,12.4c0.6,0.9,0.4,2.2-0.6,2.8c-0.9,0.6-2.2,0.4-2.8-0.6c-4.9-7.4-9.7-11-13.9-10.6
			c-5.3,0.5-9.3,7.6-10.3,10.3C825.4,1065.3,824.7,1065.8,823.9,1065.8z"/>
	</g>
	<g>
		<path class="st4" d="M847.3,1031.1c-0.8,0-1.5-0.4-1.9-1.2c-3.6-8.2-7.5-12.7-10.9-12.7c0,0,0,0,0,0c-4.1,0-7.7,6.5-8.8,9
			c-0.4,1-1.6,1.5-2.7,1.1c-1-0.4-1.5-1.6-1.1-2.7c0.5-1.2,5-11.4,12.5-11.5c5.4,0.1,10.1,4.9,14.7,15.1c0.5,1,0,2.2-1,2.7
			C847.8,1031,847.6,1031.1,847.3,1031.1z"/>
	</g>
	<g>
		<path class="st0" d="M815,994.6c-0.1,0-0.2,0-0.4,0c-1.1-0.2-1.8-1.3-1.6-2.4c0.4-2.4,4.6-24,14.5-26.6c3.9-1,7.9,0.9,11.8,5.8
			c0.7,0.9,0.6,2.1-0.3,2.9c-0.9,0.7-2.1,0.6-2.9-0.3c-2.9-3.5-5.5-5-7.7-4.4c-5.6,1.4-10,15.1-11.6,23.4
			C816.8,993.9,816,994.6,815,994.6z"/>
	</g>
	<g>
		<path class="st8" d="M798.9,967.4c-1.1,0-2-0.9-2-2c0-1.5,0-35.9,14-43.2c5-2.7,11.1-1.6,17.9,3.2c0.9,0.6,1.2,1.9,0.5,2.8
			c-0.6,0.9-1.9,1.1-2.8,0.5c-5.5-3.8-10.1-4.8-13.7-2.9c-9.8,5.2-11.9,30.3-11.8,39.6C800.9,966.4,800,967.3,798.9,967.4
			C798.9,967.4,798.9,967.4,798.9,967.4z"/>
	</g>
	<g>
		<path class="st4" d="M764.4,946.1c-0.4,0-0.8-0.1-1.1-0.3c-0.8-0.6-1.1-1.6-0.7-2.5c0.1-0.5,0.3-2.1,0.4-3.7
			c1.1-11.9,4.1-43.5,22.4-53.9c8.7-5,19.7-4.4,32.5,1.7c1,0.5,1.4,1.7,1,2.7c-0.5,1-1.7,1.4-2.7,1c-11.6-5.5-21.3-6.1-28.8-1.8
			c-16.5,9.4-19.3,39.4-20.4,50.8c-0.4,3.8-0.4,4.5-0.9,5.2C765.7,945.7,765.1,946.1,764.4,946.1z"/>
	</g>
	<g>
		<path class="st3" d="M700.8,914.9c-0.1,0-0.2,0-0.3,0c-1.1-0.2-1.9-1.2-1.7-2.3c0.2-1.5,5.4-36.3,33.8-54.9
			c18.9-12.3,43.4-14.4,72.9-6.2c1.1,0.3,1.7,1.4,1.4,2.5c-0.3,1.1-1.4,1.7-2.5,1.4c-28.3-7.9-51.7-6-69.5,5.7
			c-26.9,17.6-32,51.8-32.1,52.1C702.7,914.2,701.8,914.9,700.8,914.9z"/>
	</g>
	<g>
		<path class="st4" d="M613.3,854.3c-0.3,0-0.5,0-0.8-0.2c-1-0.4-1.5-1.6-1.1-2.6c0.5-1.3,52.1-125.2,141.9-101
			c1.1,0.3,1.7,1.4,1.4,2.5c-0.3,1.1-1.4,1.7-2.5,1.4C666,731.2,615.7,851.8,615.2,853C614.9,853.8,614.1,854.3,613.3,854.3z"/>
	</g>
	<g>
		<path class="st7" d="M295.2,764.2c-0.9,0-1.7-0.6-1.9-1.5c-0.3-1.1,0.3-2.2,1.4-2.5c0.8-0.2,81.6-24.8,103.9-87.3
			c0.4-1.1,1.5-1.6,2.6-1.2c1.1,0.4,1.6,1.5,1.2,2.6c-23,64.4-105.8,89.6-106.6,89.8C295.5,764.2,295.3,764.2,295.2,764.2z"/>
	</g>
	<g>
		<path class="st6" d="M263.8,730.1c-0.4,0-0.9-0.1-1.2-0.4c-0.9-0.7-1.1-2-0.4-2.8c0.4-0.5,41.3-53.6,88.6-32c1,0.5,1.5,1.7,1,2.7
			c-0.5,1-1.7,1.5-2.7,1c-44.4-20.3-83.3,30.2-83.7,30.7C265.1,729.8,264.5,730.1,263.8,730.1z"/>
	</g>
	<g>
		<path class="st10" d="M300.6,800.6c-0.9,0-1.7-0.6-2-1.5c-0.3-1.1,0.4-2.2,1.4-2.5c1.4-0.4,137.2-37.2,168.9-145.6
			c0.3-1.1,1.4-1.7,2.5-1.4c1.1,0.3,1.7,1.4,1.4,2.5c-32.4,110.6-170.4,148-171.8,148.4C300.9,800.6,300.7,800.6,300.6,800.6z"/>
	</g>
	<g>
		<path class="st5" d="M575.5,865.6c-0.1,0-0.3,0-0.4,0c-1.1-0.2-1.8-1.3-1.6-2.4c0.3-1.5,30.1-150.3,139.4-158.6
			c1.1-0.1,2.1,0.8,2.2,1.9c0.1,1.1-0.8,2.1-1.9,2.2C607,716.7,577.8,862.5,577.5,864C577.3,865,576.4,865.6,575.5,865.6z"/>
	</g>
	<g>
		<path class="st5" d="M489.4,868.8c-0.3,0-0.5-0.1-0.8-0.2c-1-0.4-1.5-1.6-1.1-2.7c0.7-1.7,74.9-175.1,187.4-190.2
			c1.1-0.2,2.1,0.6,2.3,1.7c0.2,1.1-0.6,2.1-1.7,2.3c-110.2,14.8-183.5,186-184.2,187.8C490.9,868.4,490.2,868.8,489.4,868.8z"/>
	</g>
	<g>
		<path class="st7" d="M445.3,862.4c-0.1,0-0.2,0-0.3,0c-1.1-0.2-1.9-1.2-1.7-2.3c0.3-1.9,28.5-188.7,169.8-210.8
			c1.1-0.2,2.1,0.6,2.3,1.7c0.2,1.1-0.6,2.1-1.7,2.3c-138.3,21.7-166.1,205.5-166.4,207.4C447.1,861.7,446.3,862.4,445.3,862.4z"/>
	</g>
	<g>
		<path class="st6" d="M225.6,726.7c-0.5,0-1-0.2-1.4-0.5c-0.8-0.8-0.9-2.1-0.1-2.9c1-1.1,102.9-108,215-64.9c1,0.4,1.6,1.6,1.2,2.6
			c-0.4,1-1.6,1.6-2.6,1.2C328.1,620.1,228.1,725,227.1,726C226.7,726.5,226.1,726.7,225.6,726.7z"/>
	</g>
	<g>
		<path class="st7" d="M234.7,277.4c-0.6,0-1.1-0.2-1.5-0.7c-42.7-47.8-92.6-43.2-93.1-43.2c-1.1,0.1-2.1-0.7-2.2-1.8
			c-0.1-1.1,0.7-2.1,1.8-2.2c0.5,0,52.4-4.9,96.5,44.5c0.7,0.8,0.7,2.1-0.2,2.9C235.7,277.3,235.2,277.4,234.7,277.4z"/>
	</g>
	<g>
		<path class="st5" d="M189.7,308.3c-48.5,0-83.2-14.1-83.7-14.3c-1-0.4-1.5-1.6-1.1-2.7c0.4-1,1.6-1.5,2.7-1.1
			c0.9,0.4,87.7,35.5,178.3-6.9c1-0.5,2.2,0,2.7,1c0.5,1,0,2.2-1,2.7C253,303.2,218.9,308.3,189.7,308.3z"/>
	</g>
	<g>
		<path class="st6" d="M310,292.9c-0.5,0-1.1-0.2-1.5-0.6C244.7,227.2,145,201,144,200.8c-1.1-0.3-1.7-1.4-1.5-2.5
			c0.3-1.1,1.4-1.7,2.5-1.5c1,0.3,101.9,26.7,166.5,92.6c0.8,0.8,0.8,2.1,0,2.9C311,292.7,310.5,292.9,310,292.9z"/>
	</g>
	<g>
		<path class="st6" d="M179,727.8c-0.2,0-0.5,0-0.7-0.1c-1-0.4-1.6-1.6-1.2-2.6c0.3-0.8,33.6-83.3,139.4-63.2
			c1.1,0.2,1.8,1.3,1.6,2.4c-0.2,1.1-1.3,1.8-2.4,1.6c-102.6-19.4-134.6,59.9-134.9,60.7C180.6,727.3,179.9,727.8,179,727.8z"/>
	</g>
	<g>
		<path class="st10" d="M228.9,336.7c-87.8,0-156.8-22.6-157.8-22.9c-1.1-0.4-1.6-1.5-1.3-2.6c0.4-1.1,1.5-1.6,2.6-1.3
			c1.6,0.5,157.9,51.7,299.2-1.2c1-0.4,2.2,0.1,2.6,1.2c0.4,1-0.1,2.2-1.2,2.6C324.4,330.7,274.2,336.7,228.9,336.7z"/>
	</g>
	<g>
		<path class="st10" d="M337,300.7c-0.8,0-1.5-0.4-1.8-1.1C289.4,206.4,204,157.4,203.1,156.9c-1-0.6-1.3-1.8-0.8-2.8
			c0.5-1,1.8-1.3,2.8-0.8c0.9,0.5,87.4,50.1,133.8,144.3c0.5,1,0.1,2.2-0.9,2.7C337.7,300.6,337.3,300.7,337,300.7z"/>
	</g>
	<g>
		<path class="st6" d="M144.1,697.6c-0.6,0-1.2-0.3-1.6-0.8c-0.7-0.9-0.5-2.2,0.4-2.9c1.8-1.4,186.3-142.9,347.5-47.8
			c1,0.6,1.3,1.8,0.7,2.8c-0.6,1-1.8,1.3-2.8,0.7c-158.8-93.7-341.2,46.1-343,47.5C145,697.5,144.6,697.6,144.1,697.6z"/>
	</g>
	<g>
		<path class="st7" d="M418.3,331.8c-0.9,0-1.7-0.6-1.9-1.4C390,247.8,241.7,150.2,240.2,149.2c-0.9-0.6-1.2-1.9-0.6-2.8
			c0.6-0.9,1.9-1.2,2.8-0.6c6.2,4,151,99.4,177.9,183.3c0.3,1.1-0.2,2.2-1.3,2.6C418.7,331.8,418.5,331.8,418.3,331.8z"/>
	</g>
	<g>
		<path class="st10" d="M48.2,368.7c-8,0-13-0.1-14.2-0.1c-1.1,0-2-0.9-2-2.1c0-1.1,0.9-2,2-2c0,0,0,0,0,0c1.8,0,181.2,3,228.7-32.6
			c0.9-0.7,2.2-0.5,2.8,0.4c0.7,0.9,0.5,2.2-0.4,2.8C224,366,92.1,368.7,48.2,368.7z"/>
	</g>
	<g>
		<path class="st9" d="M158.9,413.8c-77,0-135.5-9.2-136.8-9.4c-1.1-0.2-1.9-1.2-1.7-2.3c0.2-1.1,1.2-1.9,2.3-1.7
			c2.7,0.4,277.3,43.6,421.4-59.1c0.9-0.7,2.2-0.4,2.8,0.5c0.7,0.9,0.4,2.2-0.5,2.8C367.6,400.8,250.2,413.8,158.9,413.8z"/>
	</g>
	<g>
		<path class="st4" d="M779,242.6c-0.9,0-1.8-0.6-2-1.6c-0.3-1.1,0.4-2.2,1.5-2.4c44.9-10.5,52.1-67.4,52.2-68
			c0.1-1.1,1.2-1.9,2.3-1.8c1.1,0.1,1.9,1.1,1.8,2.3c-0.1,0.6-7.7,60.3-55.3,71.4C779.3,242.6,779.1,242.6,779,242.6z"/>
	</g>
	<g>
		<path class="st6" d="M711.5,396.2c-0.7,0.6-1.7,0.7-2.5,0.2c-0.9-0.6-1.2-1.9-0.5-2.8c26-38.1-7.2-84.9-7.5-85.4
			c-0.7-0.9-0.4-2.2,0.5-2.8c0.9-0.7,2.2-0.5,2.8,0.5c0.4,0.5,35.1,49.6,7.6,90C711.7,395.9,711.6,396.1,711.5,396.2z"/>
	</g>
	<g>
		<path class="st6" d="M748.6,481.7c-0.7,0.6-1.7,0.7-2.5,0.2c-0.9-0.6-1.2-1.9-0.5-2.8c26-38.1-7.2-84.9-7.5-85.4
			c-0.7-0.9-0.4-2.2,0.5-2.8c0.9-0.7,2.2-0.5,2.8,0.5c0.4,0.5,35.1,49.6,7.6,90C748.9,481.4,748.8,481.6,748.6,481.7z"/>
	</g>
	<g>
		<path class="st8" d="M780.4,418.5c-1.1,0-2-0.9-2-1.9c-3.7-89.6,47.5-132.6,48-133c0.9-0.7,2.1-0.6,2.9,0.3
			c0.7,0.9,0.6,2.1-0.3,2.9c-0.5,0.4-50.1,42.2-46.5,129.7C782.4,417.5,781.6,418.5,780.4,418.5
			C780.4,418.5,780.4,418.5,780.4,418.5z"/>
	</g>
	<g>
		<path class="st8" d="M802.7,511.7c-1,0-1.8-0.7-2-1.7c-4.7-29.8-1.2-52.8,10.4-68.4c11.4-15.3,26.4-17.4,27-17.5
			c1-0.1,2.1,0.6,2.3,1.7c0.2,1.1-0.6,2.1-1.7,2.3c-0.1,0-14,2.1-24.3,16c-10.9,14.7-14.1,36.6-9.6,65.2c0.2,1.1-0.6,2.2-1.7,2.3
			C802.9,511.7,802.8,511.7,802.7,511.7z"/>
	</g>
	<g>
		<path class="st8" d="M819.1,586.9c-1.1,0-2-0.8-2-1.9c-2.3-50.5,36.1-59.4,36.5-59.5c1.1-0.2,2.2,0.5,2.4,1.6
			c0.2,1.1-0.5,2.2-1.6,2.4c-1.4,0.3-35.5,8.3-33.3,55.3C821.2,585.9,820.3,586.8,819.1,586.9C819.2,586.9,819.1,586.9,819.1,586.9z
			"/>
	</g>
	<g>
		<path class="st8" d="M865.9,854.3c-1,0-1.9-0.8-2-1.8c-17.6-151.2,11-222.5,11.3-223.2c0.4-1,1.6-1.5,2.7-1.1
			c1,0.4,1.5,1.6,1.1,2.7c-0.3,0.7-28.5,71.2-11.1,221.2c0.1,1.1-0.7,2.1-1.8,2.3C866.1,854.3,866,854.3,865.9,854.3z"/>
	</g>
	<g>
		<path class="st3" d="M931.5,586.9c-0.1,0-0.1,0-0.2,0c-1.1-0.1-1.9-1.1-1.8-2.2C941,473,966.1,440.4,967.2,439.1
			c0.7-0.9,2-1,2.8-0.3c0.9,0.7,1,2,0.3,2.9c-0.3,0.3-25.4,33.3-36.8,143.4C933.4,586.1,932.5,586.9,931.5,586.9z"/>
	</g>
	<g>
		<path class="st11" d="M963.5,649.7c-0.2,0-0.4,0-0.6-0.1c-1.1-0.3-1.7-1.4-1.4-2.5c18.3-64.8,51.6-60.2,53-59.9
			c1.1,0.2,1.9,1.2,1.7,2.3c-0.2,1.1-1.2,1.8-2.3,1.7c-0.4-0.1-31.2-3.9-48.5,57C965.2,649.1,964.4,649.7,963.5,649.7z"/>
	</g>
	<g>
		<path class="st6" d="M752.9,667.7c-0.5,0-1-0.2-1.4-0.6c-55.6-53.9-116-52.9-116.6-52.8c-1.2,0.2-2.1-0.9-2.1-2
			c0-1.1,0.9-2.1,2-2.1c0.7,0,62.7-1.1,119.5,54c0.8,0.8,0.8,2.1,0,2.9C753.9,667.5,753.4,667.7,752.9,667.7z"/>
	</g>
	<g>
		<path class="st10" d="M538.8,591.2c-0.5,0-1-0.2-1.4-0.6c-0.8-0.8-0.8-2.1-0.1-2.9c1.4-1.5,35-36.1,107.4-20.8
			c1.1,0.2,1.8,1.3,1.6,2.4c-0.2,1.1-1.3,1.8-2.4,1.6c-70-14.8-103.2,19.2-103.6,19.6C539.9,591,539.3,591.2,538.8,591.2z"/>
	</g>
	<g>
		<path class="st10" d="M445.3,565.1c-0.2,0-0.5,0-0.7-0.1c-1.1-0.4-1.6-1.5-1.2-2.6c0.6-1.8,16.1-42.9,97.8-35.3
			c1.1,0.1,1.9,1.1,1.8,2.2c-0.1,1.1-1.1,1.9-2.2,1.8c-78.3-7.3-93.4,32.2-93.6,32.6C446.9,564.6,446.1,565.1,445.3,565.1z"/>
	</g>
	<g>
		<path class="st10" d="M343.5,542.9c-0.2,0-0.5,0-0.7-0.1c-1-0.4-1.6-1.6-1.2-2.6c0.2-0.4,16.4-40.9,59.1-37.3
			c1.1,0.1,1.9,1.1,1.9,2.2c-0.1,1.1-1.1,1.9-2.2,1.9c-39.8-3.3-54.4,33.2-55,34.7C345.1,542.4,344.3,542.9,343.5,542.9z"/>
	</g>
	<g>
		<path class="st6" d="M473.2,453.5c-1,0-1.9-0.8-2-1.9c-0.1-1.5-2.7-36.8,16.3-54.6c8.9-8.2,21-11.2,35.9-8.9
			c1.1,0.2,1.9,1.2,1.7,2.3c-0.2,1.1-1.3,1.8-2.3,1.7c-13.6-2.1-24.6,0.5-32.5,7.9c-17.6,16.4-15.1,50.9-15.1,51.3
			c0.1,1.1-0.7,2.1-1.9,2.2C473.3,453.5,473.3,453.5,473.2,453.5z"/>
	</g>
	<g>
		<path class="st6" d="M554.4,491.7c-0.3,0-0.6-0.1-0.9-0.2c-1-0.5-1.4-1.7-0.9-2.7c0.3-0.5,6.7-13.4,23-18.3
			c15.3-4.6,33.8-0.6,55,11.9c1,0.6,1.3,1.8,0.7,2.8c-0.6,1-1.8,1.3-2.8,0.7c-20.1-11.9-37.5-15.8-51.8-11.5
			c-14.6,4.4-20.5,16.1-20.5,16.2C555.9,491.2,555.2,491.7,554.4,491.7z"/>
	</g>
	<g>
		<path class="st6" d="M462.8,283.5c-4.2,0-6.9-0.1-7.5-0.1c-1.1,0-2-1-2-2.1c0-1.1,1-1.9,2.1-2c0.7,0,70.9,1.9,88.7-15.1
			c0.8-0.8,2.1-0.7,2.9,0.1c0.8,0.8,0.7,2.1-0.1,2.9C531.4,282,481.9,283.5,462.8,283.5z"/>
	</g>
	<g>
		<path class="st6" d="M542.9,333c-7.3,0-11.6-1.2-12.1-1.3c-1.1-0.3-1.7-1.4-1.4-2.5c0.3-1.1,1.4-1.7,2.5-1.4
			c0.3,0.1,33.4,8.7,76.8-25.9c0.9-0.7,2.2-0.6,2.9,0.3c0.7,0.9,0.6,2.2-0.3,2.9C581.6,328.8,556.8,333,542.9,333z"/>
	</g>
	<g>
		<path class="st6" d="M702,385.4c-0.5,0-1-0.2-1.4-0.6c-25.2-23.9-48.8-35-70-32.7c-22.7,2.4-34.8,19.6-34.9,19.8
			c-0.6,0.9-1.9,1.2-2.8,0.5c-0.9-0.6-1.2-1.9-0.5-2.8c0.5-0.8,13.2-18.9,37.8-21.5c22.6-2.4,47.2,9,73.3,33.8
			c0.8,0.8,0.8,2.1,0.1,2.9C703.1,385.2,702.6,385.4,702,385.4z"/>
	</g>
	<g>
		<path class="st6" d="M739.5,644.8c-0.8,0-1.6-0.5-1.9-1.4c-31.5-89.1-17.3-115.2-16.7-116.3c0.6-1,1.8-1.3,2.8-0.7
			c1,0.6,1.3,1.8,0.8,2.8c-0.2,0.4-13.6,26.4,17,112.9c0.4,1.1-0.2,2.2-1.2,2.6C739.9,644.8,739.7,644.8,739.5,644.8z"/>
	</g>
	<g>
		<path class="st0" d="M1026.4,741.7c-0.3,0-0.5,0-0.8-0.2c-1-0.4-1.5-1.6-1.1-2.7c6.1-14.9,14.8-24.1,25.7-27.3
			c16.2-4.8,31.3,5.5,31.9,5.9c0.9,0.6,1.2,1.9,0.5,2.8c-0.6,0.9-1.9,1.2-2.8,0.5c-0.1-0.1-14.2-9.6-28.5-5.3
			c-9.7,2.9-17.4,11.2-23.1,24.9C1027.9,741.2,1027.2,741.7,1026.4,741.7z"/>
	</g>
	<g>
		<path class="st10" d="M463.5,514.6c-0.2,0-0.3,0-0.5-0.1c-47.9-12.1-49.9-39.3-50-40.5c-0.1-1.1,0.8-2.1,1.9-2.1
			c1.2,0,2.1,0.8,2.2,1.9c0,0.3,2.2,25.4,46.9,36.8c1.1,0.3,1.7,1.4,1.5,2.5C465.2,514,464.4,514.6,463.5,514.6z"/>
	</g>
	<g>
		<path class="st6" d="M350.3,357.1c-1,0-1.9-0.8-2-1.8c-0.1-1.1,0.7-2.1,1.8-2.2c0.3,0,32-3.8,43.2-18.2c3.1-4,4.3-8.4,3.7-13.4
			c-0.2-1.1,0.6-2.1,1.7-2.3c1.1-0.2,2.1,0.6,2.3,1.7c0.8,6-0.7,11.6-4.5,16.5c-12.3,15.8-44.6,19.6-45.9,19.8
			C350.4,357.1,350.3,357.1,350.3,357.1z"/>
	</g>
	<g>
		<path class="st9" d="M534.1,644.8c-0.8,0-1.6-0.5-1.9-1.3c-10.9-28-58.6-30.1-59.1-30.2c-1.1,0-2-1-2-2.1c0-1.1,0.9-1.9,2.1-2
			c2.1,0.1,50.8,2.2,62.7,32.8c0.4,1-0.1,2.2-1.2,2.6C534.6,644.8,534.4,644.8,534.1,644.8z"/>
	</g>
	<g>
		<path class="st6" d="M430.2,625.1C430.2,625.1,430.1,625.1,430.2,625.1c-1.2-0.1-2.1-1-2-2.1c1.5-34.6-36.8-42-38.4-42.3
			c-1.1-0.2-1.8-1.3-1.6-2.4c0.2-1.1,1.2-1.8,2.4-1.6c0.4,0.1,43.4,8.3,41.8,46.5C432.2,624.3,431.3,625.1,430.2,625.1z"/>
	</g>
	<g>
		<path class="st10" d="M270.6,535.2c-0.9,0-1.8-0.6-2-1.6c-0.2-1.1,0.4-2.2,1.5-2.4c0.3-0.1,35.1-8.1,44.2-31.5
			c0.4-1,1.6-1.6,2.6-1.2c1,0.4,1.6,1.6,1.2,2.6c-9.9,25.4-45.6,33.6-47.1,34C270.9,535.2,270.7,535.2,270.6,535.2z"/>
	</g>
	<g>
		<path class="st10" d="M396.5,506.7c-0.7,0-1.3-0.3-1.7-1c-24.8-39.8-48.6-33.2-48.9-33.1c-1.1,0.3-2.2-0.3-2.5-1.4
			c-0.3-1.1,0.3-2.2,1.3-2.5c1.1-0.3,27-7.8,53.5,34.9c0.6,1,0.3,2.2-0.7,2.8C397.3,506.6,396.9,506.7,396.5,506.7z"/>
	</g>
	<g>
		<path class="st3" d="M929.2,632.1c-0.3,0-0.7-0.1-1-0.3c-38.6-21.7-31.2-75.4-31.1-75.9c0.2-1.1,1.2-1.9,2.3-1.7
			c1.1,0.2,1.9,1.2,1.7,2.3c-0.1,0.5-7.1,51.5,29.1,71.8c1,0.5,1.3,1.8,0.8,2.8C930.6,631.7,929.9,632.1,929.2,632.1z"/>
	</g>
	<g>
		<path class="st6" d="M684.6,553.7c-0.4,0-0.8-0.1-1.2-0.4c-0.9-0.7-1.1-1.9-0.5-2.8c21.1-29.3-0.5-58.4-1.4-59.6
			c-0.7-0.9-0.5-2.2,0.4-2.8c0.9-0.7,2.2-0.5,2.8,0.4c0.2,0.3,24.4,32.6,1.5,64.5C685.8,553.4,685.2,553.7,684.6,553.7z"/>
	</g>
	<g>
		<path class="st6" d="M641.8,499.7c-0.1,0-0.3,0-0.4,0c-1.1-0.2-1.8-1.3-1.6-2.4c8.6-44.7-23.5-75-23.8-75.3
			c-0.8-0.8-0.9-2.1-0.1-2.9c0.8-0.8,2-0.9,2.9-0.1c0.3,0.3,34.1,32.2,25,79.1C643.6,499,642.8,499.7,641.8,499.7z"/>
	</g>
	<g>
		<path class="st12" d="M455.4,279.1"/>
	</g>
	<g>
		<path class="st6" d="M750.2,491.7c-0.1,0-0.3,0-0.4,0c-58-11.8-83.3-45.9-84.4-47.4c-0.7-0.9-0.5-2.2,0.5-2.8
			c0.9-0.7,2.2-0.5,2.8,0.4c0.2,0.3,25.5,34.4,81.9,45.8c1.1,0.2,1.8,1.3,1.6,2.4C752,491,751.2,491.7,750.2,491.7z"/>
	</g>
	<g>
		<path class="st6" d="M487.7,107.2c1.3,0.9,131.8,91.4,241.4,337.9c76.3,171.6,153.9,447.1,152.5,856.7h4.3
			c0.6-124.3-6.1-242.4-19.9-353.4c-23.7-189.9-68.5-359.8-133.1-505C622.8,195.9,491.3,104.7,490,103.8c-0.9-0.6-2.2-0.4-2.8,0.5
			C486.6,105.3,486.8,106.5,487.7,107.2z"/>
	</g>
	<g>
		<path class="st10" d="M743.6,649.7c-0.6,0-1.2-0.2-1.6-0.7c-98.2-118-288.8-144.8-431.4-146.5c-154.8-2-288.1,24.6-289.5,24.9
			c-1.1,0.2-2.2-0.5-2.4-1.6c-0.2-1.1,0.5-2.2,1.6-2.4c1.3-0.3,135.1-26.9,290.2-24.9c143.5,1.7,335.4,28.8,434.6,148
			c0.7,0.9,0.6,2.1-0.3,2.9C744.6,649.5,744.1,649.7,743.6,649.7z"/>
	</g>
	<g>
		<path class="st9" d="M301.7,727.5c2.1-1.5,211.9-146.8,372.3-48c82.6,50.9,138.4,157.3,166,316.2c15,86.4,21.5,188.7,19.8,306.1
			h4.1c1.8-117.7-4.8-220.1-19.8-306.8c-27.7-160.2-84.2-267.5-167.8-319c-162.6-100.1-374.6,46.6-376.8,48.1
			c-0.9,0.6-1.1,1.9-0.5,2.8C299.6,727.9,300.8,728.1,301.7,727.5z"/>
	</g>
	<g>
		<path class="st8" d="M814.4,572.2c40.9,193,80.8,451.5,82.3,729.6h4.1c-1.5-278.5-41.5-537.3-82.5-730.5
			C752.4,260.5,669.8,47.6,669,45.5c-0.4-1-1.6-1.6-2.6-1.2c-1,0.4-1.6,1.6-1.2,2.6C666.1,49.1,748.6,261.7,814.4,572.2z"/>
	</g>
	<g>
		<path class="st3" d="M909.5,1301.8c8.9-660.4,56.3-1200.5,56.8-1207.1c0.1-1.1-0.7-2.1-1.8-2.2c-1.1-0.1-2.1,0.7-2.2,1.8
			c-0.6,6.6-47.9,546.8-56.9,1207.4H909.5z"/>
	</g>
	<g>
		<path class="st11" d="M933.2,1301.8c5.3-857,105-1036.8,169.6-1062.6c33.2-13.2,58.8,14.4,59,14.7c0.8,0.8,2,0.9,2.9,0.1
			c0.8-0.7,0.9-2,0.1-2.9c-0.3-0.3-27.7-30-63.5-15.7c-52.1,20.7-94.9,123.9-123.9,298.4c-30.1,181-46.2,438.4-48.2,768H933.2z"/>
	</g>
	<g>
		<path class="st2" d="M955.8,1301.8c-11.8-473.2,56.5-612.4,123.8-638.2c75.2-28.8,158.7,80.2,159.6,81.4c0.7,0.9,1.9,1.1,2.8,0.4
			c0.9-0.7,1.1-1.9,0.4-2.8c-3.5-4.6-86.2-112.6-164.3-82.7c-53.5,20.5-90.7,101.4-110.6,240.4c-14.7,102.5-20,236.9-15.8,401.6
			H955.8z"/>
	</g>
	<g>
		<path class="st6" d="M140.1,271.5c2.7-0.2,278.1-15.7,489.3,215.3c164.2,179.6,246.5,452.7,246.1,815h3.6
			c0-132.2-11-253-32.9-361.5c-38.3-189.5-110.2-343-213.7-456.2C419.8,251.6,142.6,267.2,139.8,267.4c-1.1,0.1-2,1-1.9,2.2
			C138,270.7,139,271.6,140.1,271.5z"/>
	</g>
</g>
<g>
	<path class="st8" d="M1081.8,159.8c0,8.6,7,15.7,15.7,15.7c8.6,0,15.7-7,15.7-15.7c0-8.6-7-15.7-15.7-15.7
		C1088.9,144.2,1081.8,151.2,1081.8,159.8z"/>
	<path class="st3" d="M883.4,556.2c0,8.6,7,15.7,15.7,15.7c8.6,0,15.7-7,15.7-15.7c0-8.6-7-15.7-15.7-15.7
		C890.5,540.5,883.4,547.5,883.4,556.2z"/>
	<path class="st11" d="M1155.8,228.4c8.6,0,15.7-7,15.7-15.7c0-8.6-7-15.7-15.7-15.7c-8.6,0-15.7,7-15.7,15.7
		C1140.2,221.3,1147.2,228.4,1155.8,228.4z"/>
	<path class="st11" d="M1014.3,604.8c8.6,0,15.7-7,15.7-15.7c0-8.6-7-15.7-15.7-15.7c-8.6,0-15.7,7-15.7,15.7
		C998.6,597.8,1005.7,604.8,1014.3,604.8z"/>
	<path class="st11" d="M1147.7,252.5c0,8.6,7,15.7,15.7,15.7s15.7-7,15.7-15.7c0-8.6-7-15.7-15.7-15.7S1147.7,243.9,1147.7,252.5z"
		/>
	<path class="st2" d="M1333,642.8c8.6,0,15.7-7,15.7-15.7c0-8.6-7-15.7-15.7-15.7c-8.6,0-15.7,7-15.7,15.7
		C1317.3,635.8,1324.4,642.8,1333,642.8z"/>
	<path class="st1" d="M1325.5,604.9c8.6,0,15.7-7,15.7-15.7c0-8.6-7-15.7-15.7-15.7c-8.6,0-15.7,7-15.7,15.7
		C1309.9,597.9,1316.9,604.9,1325.5,604.9z"/>
	
		<ellipse transform="matrix(1 -3.145007e-03 3.145007e-03 1 -1.6087 4.1886)" class="st1" cx="1331" cy="513.6" rx="15.7" ry="15.7"/>
	<path class="st1" d="M1316.9,454c8.6,0,15.7-7,15.7-15.7c0-8.6-7-15.7-15.7-15.7c-8.6,0-15.7,7-15.7,15.7
		C1301.3,447,1308.3,454,1316.9,454z"/>
	<path class="st0" d="M1272.8,343.1c8.6,0,15.7-7,15.7-15.7c0-8.6-7-15.7-15.7-15.7s-15.7,7-15.7,15.7
		C1257.2,336.1,1264.2,343.1,1272.8,343.1z"/>
	<path class="st0" d="M1193.1,290.1c8.6,0,15.7-7,15.7-15.7c0-8.6-7-15.7-15.7-15.7c-8.6,0-15.7,7-15.7,15.7
		C1177.4,283.1,1184.4,290.1,1193.1,290.1z"/>
	<path class="st10" d="M110.7,666.8c-8.6,0-15.7,7-15.7,15.7c0,8.6,7,15.7,15.7,15.7c8.6,0,15.7-7,15.7-15.7
		C126.3,673.9,119.3,666.8,110.7,666.8z"/>
	<path class="st10" d="M270.6,517.5c-8.6,0-15.7,7-15.7,15.7c0,8.6,7,15.7,15.7,15.7c8.6,0,15.7-7,15.7-15.7
		C286.2,524.5,279.2,517.5,270.6,517.5z"/>
	<path class="st6" d="M179,710.1c-8.6,0-15.7,7-15.7,15.7c0,8.6,7,15.7,15.7,15.7c8.6,0,15.7-7,15.7-15.7
		C194.7,717.2,187.7,710.1,179,710.1z"/>
	<path class="st2" d="M1235.2,308.5c8.6,0,15.7-7,15.7-15.7c0-8.6-7-15.7-15.7-15.7c-8.6,0-15.7,7-15.7,15.7
		C1219.5,301.4,1226.6,308.5,1235.2,308.5z"/>
	<path class="st2" d="M1268.8,367c0,8.6,7,15.7,15.7,15.7c8.6,0,15.7-7,15.7-15.7c0-8.6-7-15.7-15.7-15.7
		C1275.8,351.3,1268.8,358.3,1268.8,367z"/>
	<path class="st1" d="M1316,400.8c0-8.6-7-15.7-15.7-15.7c-8.6,0-15.7,7-15.7,15.7c0,8.6,7,15.7,15.7,15.7
		C1308.9,416.5,1316,409.5,1316,400.8z"/>
	
		<ellipse transform="matrix(3.185064e-03 -1 1 3.185064e-03 -131.1541 407.3605)" class="st6" cx="138.8" cy="269.5" rx="15.7" ry="15.7"/>
	
		<ellipse transform="matrix(3.185064e-03 -1 1 3.185064e-03 -6.2226 703.9775)" class="st6" cx="350" cy="355.1" rx="15.7" ry="15.7"/>
	
		<ellipse transform="matrix(3.185064e-03 -1 1 3.185064e-03 -105.7259 648.8348)" class="st10" cx="272.6" cy="377.4" rx="15.7" ry="15.7"/>
	<path class="st10" d="M32.5,382.2c8.6,0,15.7-7,15.7-15.7c0-8.6-7-15.7-15.7-15.7c-8.6,0-15.7,7-15.7,15.7
		C16.9,375.2,23.9,382.2,32.5,382.2z"/>
	<path class="st10" d="M414.5,489.6c8.6,0,15.7-7,15.7-15.7c0-8.6-7-15.7-15.7-15.7c-8.6,0-15.7,7-15.7,15.7
		C398.9,482.6,405.9,489.6,414.5,489.6z"/>
	<path class="st9" d="M400.4,433.7c8.6,0,15.7-7,15.7-15.7c0-8.6-7-15.7-15.7-15.7c-8.6,0-15.7,7-15.7,15.7
		C384.8,426.6,391.8,433.7,400.4,433.7z"/>
	<ellipse class="st9" cx="22.4" cy="402.4" rx="15.7" ry="15.7"/>
	<ellipse class="st10" cx="343.5" cy="470.6" rx="15.7" ry="15.7"/>
	<ellipse class="st10" cx="272.6" cy="470.6" rx="15.7" ry="15.7"/>
	<path class="st10" d="M18.4,492.4c8.6,0,15.7-7,15.7-15.7c0-8.6-7-15.7-15.7-15.7c-8.6,0-15.7,7-15.7,15.7
		C2.7,485.4,9.7,492.4,18.4,492.4z"/>
	
		<ellipse transform="matrix(0.9732 -0.2298 0.2298 0.9732 -64.3906 32.3699)" class="st5" cx="106.8" cy="292.7" rx="13.5" ry="13.5"/>
	<path class="st6" d="M488.9,118.9c8.6,0,15.7-7,15.7-15.7c0-8.6-7-15.7-15.7-15.7c-8.6,0-15.7,7-15.7,15.7
		C473.2,111.8,480.3,118.9,488.9,118.9z"/>
	<path class="st6" d="M453.6,297c8.6,0,15.7-7,15.7-15.7c0-8.6-7-15.7-15.7-15.7c-8.6,0-15.7,7-15.7,15.7C438,290,445,297,453.6,297
		z"/>
	<path class="st7" d="M457.6,64.7c-8.6,0-15.7,7-15.7,15.7c0,8.6,7,15.7,15.7,15.7c8.6,0,15.7-7,15.7-15.7
		C473.2,71.7,466.2,64.7,457.6,64.7z"/>
	
		<ellipse transform="matrix(1 -3.204690e-03 3.204690e-03 1 -0.1908 1.1501)" class="st9" cx="358.8" cy="60.1" rx="15.7" ry="15.7"/>
	
		<ellipse transform="matrix(3.184266e-03 -1 1 3.184266e-03 -490.8228 1197.0428)" class="st5" cx="355" cy="844.7" rx="15.7" ry="15.7"/>
	<path class="st3" d="M398.9,840.2c-8.6,0-15.7,7-15.7,15.7c0,8.6,7,15.7,15.7,15.7c8.6,0,15.7-7,15.7-15.7
		C414.5,847.2,407.5,840.2,398.9,840.2z"/>
	<path class="st10" d="M315.5,798.6c0-8.6-7-15.7-15.7-15.7c-8.6,0-15.7,7-15.7,15.7c0,8.6,7,15.7,15.7,15.7
		C308.5,814.2,315.5,807.2,315.5,798.6z"/>
	<path class="st9" d="M323.1,808.9c-8.6,0-15.7,7-15.7,15.7c0,8.6,7,15.7,15.7,15.7c8.6,0,15.7-7,15.7-15.7
		C338.7,815.9,331.7,808.9,323.1,808.9z"/>
	<path class="st10" d="M538.8,573.5c-8.6,0-15.7,7-15.7,15.7c0,8.6,7,15.7,15.7,15.7c8.6,0,15.7-7,15.7-15.7
		C554.4,580.6,547.4,573.5,538.8,573.5z"/>
	
		<ellipse transform="matrix(1 -3.145007e-03 3.145007e-03 1 -2.2882 0.9489)" class="st9" cx="300.6" cy="728" rx="15.7" ry="15.7"/>
	
		<ellipse transform="matrix(3.185064e-03 -1 1 3.185064e-03 -119.1915 1006.5397)" class="st10" cx="445.3" cy="563.1" rx="15.7" ry="15.7"/>
	<path class="st5" d="M489.4,852.2c-8.6,0-15.7,7-15.7,15.7c0,8.6,7,15.7,15.7,15.7c8.6,0,15.7-7,15.7-15.7
		C505,859.3,498,852.2,489.4,852.2z"/>
	<path class="st3" d="M534.1,862.5c-8.6,0-15.7,7-15.7,15.7c0,8.6,7,15.7,15.7,15.7c8.6,0,15.7-7,15.7-15.7
		C549.8,869.6,542.8,862.5,534.1,862.5z"/>
	<ellipse class="st4" cx="613.3" cy="852.2" rx="15.7" ry="15.7"/>
	<path class="st5" d="M575.5,848.1c-8.6,0-15.7,7-15.7,15.7c0,8.6,7,15.7,15.7,15.7c8.6,0,15.7-7,15.7-15.7
		C591.1,855.1,584.1,848.1,575.5,848.1z"/>
	<path class="st7" d="M310.8,762.2c0-8.6-7-15.7-15.7-15.7c-8.6,0-15.7,7-15.7,15.7c0,8.6,7,15.7,15.7,15.7
		C303.8,777.8,310.8,770.8,310.8,762.2z"/>
	<path class="st6" d="M650.5,614.4c0-8.6-7-15.7-15.7-15.7c-8.6,0-15.7,7-15.7,15.7c0,8.6,7,15.7,15.7,15.7
		C643.5,630,650.5,623,650.5,614.4z"/>
	<path class="st7" d="M445.3,844.7c-8.6,0-15.7,7-15.7,15.7c0,8.6,7,15.7,15.7,15.7c8.6,0,15.7-7,15.7-15.7
		C460.9,851.7,453.9,844.7,445.3,844.7z"/>
	<ellipse class="st6" cx="263.8" cy="728.7" rx="15.7" ry="15.7"/>
	<path class="st6" d="M225.6,709c-7.8,0-14.2,5.7-15.4,13.1c-0.1,0.8-0.3,1.7-0.3,2.5c0,8.6,7,15.7,15.7,15.7h0
		c8.6,0,15.6-7,15.6-15.7C241.2,716,234.2,709,225.6,709z"/>
	<path class="st6" d="M144.1,681.9c-7.6,0-13.7,6.2-13.7,13.7c0,7.6,6.2,13.7,13.7,13.7s13.7-6.2,13.7-13.7
		C157.9,688,151.7,681.9,144.1,681.9z"/>
	<path class="st10" d="M343.5,527.5c-7.6,0-13.7,6.2-13.7,13.7c0,7.6,6.2,13.7,13.7,13.7c7.6,0,13.7-6.2,13.7-13.7
		C357.3,533.6,351.1,527.5,343.5,527.5z"/>
	<path class="st9" d="M80.1,628.3c-8.6,0-15.7,7-15.7,15.7c0,8.6,7,15.7,15.7,15.7c8.6,0,15.7-7,15.7-15.7
		C95.8,635.4,88.7,628.3,80.1,628.3z"/>
	<path class="st9" d="M475.4,595.7c-8.6,0-15.7,7-15.7,15.7c0,8.6,7,15.7,15.7,15.7c8.6,0,15.7-7,15.7-15.7
		C491,602.7,484,595.7,475.4,595.7z"/>
	<path class="st6" d="M554.4,474c-8.6,0-15.7,7-15.7,15.7c0,8.6,7,15.7,15.7,15.7c8.6,0,15.7-7,15.7-15.7
		C570.1,481,563.1,474,554.4,474z"/>
	<path class="st6" d="M71.7,614.4c0-8.6-7-15.7-15.7-15.7c-8.6,0-15.7,7-15.7,15.7c0,8.6,7,15.7,15.7,15.7
		C64.7,630,71.7,623,71.7,614.4z"/>
	<path class="st6" d="M46.6,572c0-8.6-7-15.7-15.7-15.7c-8.6,0-15.7,7-15.7,15.7c0,8.6,7,15.7,15.7,15.7
		C39.6,587.6,46.6,580.6,46.6,572z"/>
	<path class="st6" d="M405.7,578.7c0-8.6-7-15.7-15.7-15.7c-8.6,0-15.7,7-15.7,15.7c0,8.6,7,15.7,15.7,15.7
		C398.7,594.4,405.7,587.3,405.7,578.7z"/>
	<path class="st10" d="M36.4,525.7l0-0.4c0-9-7-16-15.6-16c-8.5,0-15.4,6.8-15.6,15.5l0,0.4c0,9,7,16,15.6,16
		C29.3,541.2,36.2,534.4,36.4,525.7z"/>
	<ellipse class="st6" cx="15.7" cy="438.1" rx="15.7" ry="15.7"/>
	<ellipse class="st6" cx="473.2" cy="449.3" rx="15.7" ry="15.7"/>
	<path class="st7" d="M44.1,350.9c8.6,0,15.7-7,15.7-15.7c0-8.6-7-15.7-15.7-15.7c-8.6,0-15.7,7-15.7,15.7
		C28.5,343.9,35.5,350.9,44.1,350.9z"/>
	<path class="st10" d="M71.4,324c8.6,0,15.7-7,15.7-15.7c0-8.6-7-15.7-15.7-15.7c-8.6,0-15.7,7-15.7,15.7
		C55.7,317,62.7,324,71.4,324z"/>
	<path class="st10" d="M139.9,249c8.6,0,15.7-7,15.7-15.7c0-8.6-7-15.7-15.7-15.7c-8.6,0-15.7,7-15.7,15.7
		C124.3,242,131.3,249,139.9,249z"/>
	<path class="st10" d="M405.7,259.1c8.6,0,15.7-7,15.7-15.7c0-8.6-7-15.7-15.7-15.7c-8.6,0-15.7,7-15.7,15.7
		C390.1,252.1,397.1,259.1,405.7,259.1z"/>
	<path class="st6" d="M144.5,183.2c-8.6,0-15.7,7-15.7,15.7c0,8.6,7,15.7,15.7,15.7c8.6,0,15.7-7,15.7-15.7
		C160.1,190.2,153.1,183.2,144.5,183.2z"/>
	<path class="st9" d="M170.9,186.5c8.6,0,15.7-7,15.7-15.7c0-8.6-7-15.7-15.7-15.7c-8.6,0-15.7,7-15.7,15.7
		C155.3,179.5,162.3,186.5,170.9,186.5z"/>
	<path class="st10" d="M202.8,170.7c8.6,0,15.7-7,15.7-15.7c0-8.6-7-15.7-15.7-15.7c-8.6,0-15.7,7-15.7,15.7
		C187.2,163.7,194.2,170.7,202.8,170.7z"/>
	<path class="st7" d="M256.9,147.5c0-8.6-7-15.7-15.7-15.7s-15.7,7-15.7,15.7c0,8.6,7,15.7,15.7,15.7S256.9,156.1,256.9,147.5z"/>
	<path class="st6" d="M278,151.2c8.6,0,15.7-7,15.7-15.7c0-8.6-7-15.7-15.7-15.7c-8.6,0-15.7,7-15.7,15.7
		C262.4,144.1,269.4,151.2,278,151.2z"/>
	<path class="st7" d="M306.4,125.3c8.6,0,15.7-7,15.7-15.7c0-8.6-7-15.7-15.7-15.7c-8.6,0-15.7,7-15.7,15.7
		C290.8,118.3,297.8,125.3,306.4,125.3z"/>
	<path class="st7" d="M405.7,46.3c0-8.6-7-15.7-15.7-15.7c-8.6,0-15.7,7-15.7,15.7c0,8.6,7,15.7,15.7,15.7
		C398.7,62,405.7,55,405.7,46.3z"/>
	<path class="st6" d="M443.3,57.6c0-8.6-7-15.7-15.7-15.7C419,42,412,49,412,57.6c0,8.6,7,15.7,15.7,15.7
		C436.3,73.3,443.3,66.3,443.3,57.6z"/>
	<path class="st8" d="M331.9,96c8.6,0,15.7-7,15.7-15.7c0-8.6-7-15.7-15.7-15.7c-8.6,0-15.7,7-15.7,15.7C316.3,89,323.3,96,331.9,96
		z"/>
	<path class="st6" d="M529.3,343.3c8.6,0,15.7-7,15.7-15.7c0-8.6-7-15.7-15.7-15.7c-8.6,0-15.7,7-15.7,15.7
		C513.7,336.2,520.7,343.3,529.3,343.3z"/>
	<path class="st9" d="M531.8,82.3c0-8.6-7-15.7-15.7-15.7c-8.6,0-15.7,7-15.7,15.7c0,8.6,7,15.7,15.7,15.7
		C524.8,97.9,531.8,90.9,531.8,82.3z"/>
	<path class="st0" d="M999.7,124.4c8.6,0,15.7-7,15.7-15.7s-7-15.7-15.7-15.7c-8.6,0-15.7,7-15.7,15.7S991.1,124.4,999.7,124.4z"/>
	<path class="st4" d="M908,51c8.6,0,15.7-7,15.7-15.7c0-8.6-7-15.7-15.7-15.7c-8.6,0-15.7,7-15.7,15.7C892.4,44,899.4,51,908,51z"/>
	<path class="st8" d="M877.1,645.7c8.6,0,15.7-7,15.7-15.7c0-8.6-7-15.7-15.7-15.7c-8.6,0-15.7,7-15.7,15.7
		C861.5,638.7,868.5,645.7,877.1,645.7z"/>
	<path class="st4" d="M835.3,31.3c8.6,0,15.7-7,15.7-15.7c0-8.6-7-15.7-15.7-15.7s-15.7,7-15.7,15.7
		C819.6,24.3,826.7,31.3,835.3,31.3z"/>
	<path class="st4" d="M832.7,186.5c8.6,0,15.7-7,15.7-15.7c0-8.6-7-15.7-15.7-15.7c-8.6,0-15.7,7-15.7,15.7
		C817.1,179.5,824.1,186.5,832.7,186.5z"/>
	<path class="st8" d="M719,72.9c7.4,0,13.3-6,13.3-13.3c0-7.4-6-13.3-13.3-13.3s-13.3,6-13.3,13.3C705.7,66.9,711.6,72.9,719,72.9z"
		/>
	<path class="st5" d="M617.4,58.2c8.6,0,15.7-7,15.7-15.7c0-8.6-7-15.7-15.7-15.7c-8.6,0-15.7,7-15.7,15.7
		C601.7,51.1,608.8,58.2,617.4,58.2z"/>
	<ellipse class="st9" cx="578.4" cy="42.5" rx="15.7" ry="15.7"/>
	<path class="st0" d="M1325.5,569.9c8.6,0,15.7-7,15.7-15.7c0-8.6-7-15.7-15.7-15.7c-8.6,0-15.7,7-15.7,15.7
		C1309.9,562.9,1316.9,569.9,1325.5,569.9z"/>
	<path class="st2" d="M1309.9,480.5c0,8.6,7,15.7,15.7,15.7c8.6,0,15.7-7,15.7-15.7c0-8.6-7-15.7-15.7-15.7
		C1316.9,464.9,1309.9,471.9,1309.9,480.5z"/>
	<path class="st8" d="M1136.3,190.7c0-8.6-7-15.7-15.7-15.7c-8.6,0-15.7,7-15.7,15.7c0,8.6,7,15.7,15.7,15.7
		C1129.3,206.3,1136.3,199.3,1136.3,190.7z"/>
	<path class="st1" d="M1152.8,531.9c0-8.6-7-15.7-15.7-15.7c-8.6,0-15.7,7-15.7,15.7c0,8.6,7,15.7,15.7,15.7
		C1145.8,547.6,1152.8,540.6,1152.8,531.9z"/>
	<path class="st8" d="M665.5,59.2c7.4,0,13.5-6,13.5-13.5c0-7.4-6-13.5-13.5-13.5c-7.4,0-13.5,6-13.5,13.5
		C652.1,53.2,658.1,59.2,665.5,59.2z"/>
	<path class="st6" d="M683.1,503.1c7.4,0,13.5-6,13.5-13.5c0-7.4-6-13.5-13.5-13.5c-7.4,0-13.5,6-13.5,13.5
		C669.7,497.1,675.7,503.1,683.1,503.1z"/>
	<path class="st6" d="M700.6,319.9c7.4,0,13.5-6,13.5-13.5c0-7.4-6-13.5-13.5-13.5c-7.4,0-13.5,6-13.5,13.5
		C687.1,313.8,693.2,319.9,700.6,319.9z"/>
	<path class="st5" d="M697.3,53.9c6.6,0,11.9-5.3,11.9-11.9S703.9,30,697.3,30c-6.6,0-11.9,5.3-11.9,11.9S690.7,53.9,697.3,53.9z"/>
	<path class="st8" d="M854,539.4c6.6,0,11.9-5.3,11.9-11.9c0-6.6-5.3-11.9-11.9-11.9c-6.6,0-11.9,5.3-11.9,11.9
		C842.1,534,847.4,539.4,854,539.4z"/>
	<path class="st9" d="M653.5,66.9c0-7.4-6-13.4-13.4-13.4c-7.4,0-13.4,6-13.4,13.4c0,7.4,6,13.4,13.4,13.4
		C647.5,80.3,653.5,74.3,653.5,66.9z"/>
	<path class="st6" d="M630.8,420.5c0-7.4-6-13.4-13.4-13.4c-7.4,0-13.4,6-13.4,13.4c0,7.4,6,13.4,13.4,13.4
		C624.8,433.9,630.8,427.9,630.8,420.5z"/>
	<path class="st6" d="M736,527.5c0-7.4-6-13.4-13.4-13.4c-7.4,0-13.4,6-13.4,13.4c0,7.4,6,13.4,13.4,13.4
		C730,540.9,736,534.9,736,527.5z"/>
	<path class="st6" d="M678.9,438.1c0-7.4-6-13.4-13.4-13.4c-7.4,0-13.4,6-13.4,13.4c0,7.4,6,13.4,13.4,13.4
		C672.9,451.5,678.9,445.5,678.9,438.1z"/>
	<path class="st3" d="M538.1,37.9c-8.6,0-15.7,7-15.7,15.7c0,8.6,7,15.7,15.7,15.7c8.6,0,15.7-7,15.7-15.7
		C553.7,44.9,546.7,37.9,538.1,37.9z"/>
	<path class="st6" d="M591.3,355.1c-8.6,0-15.7,7-15.7,15.7c0,8.6,7,15.7,15.7,15.7c8.6,0,15.7-7,15.7-15.7
		C606.9,362.1,599.9,355.1,591.3,355.1z"/>
	<path class="st3" d="M964.3,78.9c-8.6,0-15.7,7-15.7,15.7c0,8.6,7,15.7,15.7,15.7c8.6,0,15.7-7,15.7-15.7
		C980,85.9,973,78.9,964.3,78.9z"/>
	<ellipse class="st11" cx="937.2" cy="66.7" rx="15.7" ry="15.7"/>
	<ellipse class="st3" cx="848.4" cy="355.1" rx="15.7" ry="15.7"/>
	<ellipse class="st3" cx="968.7" cy="440.4" rx="15.7" ry="15.7"/>
	<path class="st3" d="M885.3,21.9c0-8.6-7-15.7-15.7-15.7c-8.6,0-15.7,7-15.7,15.7c0,8.6,7,15.7,15.7,15.7
		C878.3,37.6,885.3,30.6,885.3,21.9z"/>
	<path class="st4" d="M857.7,82.3c0-8.6-7-15.7-15.7-15.7c-8.6,0-15.7,7-15.7,15.7c0,8.6,7,15.7,15.7,15.7
		C850.7,98,857.7,91,857.7,82.3z"/>
	<ellipse class="st8" cx="796.3" cy="19.7" rx="15.7" ry="15.7"/>
	<ellipse class="st8" cx="827.6" cy="285.1" rx="15.7" ry="15.7"/>
	<path class="st5" d="M762.7,57.6c8.6,0,15.7-7,15.7-15.7c0-8.6-7-15.7-15.7-15.7c-8.6,0-15.7,7-15.7,15.7
		C747,50.6,754,57.6,762.7,57.6z"/>
	<path class="st8" d="M838.3,440.4c8.6,0,15.7-7,15.7-15.7c0-8.6-7-15.7-15.7-15.7c-8.6,0-15.7,7-15.7,15.7
		C822.7,433.4,829.7,440.4,838.3,440.4z"/>
	<path class="st6" d="M738.3,408.8c8.6,0,15.7-7,15.7-15.7c0-8.6-7-15.7-15.7-15.7c-8.6,0-15.7,7-15.7,15.7
		C722.6,401.7,729.6,408.8,738.3,408.8z"/>
	<path class="st11" d="M1050.8,120.2c0-8.6-7-15.7-15.7-15.7c-8.6,0-15.7,7-15.7,15.7c0,8.6,7,15.7,15.7,15.7
		C1043.7,135.8,1050.8,128.8,1050.8,120.2z"/>
	<path class="st4" d="M1072.7,152.3c8.6,0,15.7-7,15.7-15.7c0-8.6-7-15.7-15.7-15.7c-8.6,0-15.7,7-15.7,15.7
		C1057,145.3,1064,152.3,1072.7,152.3z"/>
	<path class="st1" d="M1163.4,464.9c8.6,0,15.7-7,15.7-15.7c0-8.6-7-15.7-15.7-15.7c-8.6,0-15.7,7-15.7,15.7
		C1147.7,457.8,1154.7,464.9,1163.4,464.9z"/>
	<ellipse class="st0" cx="1225.2" cy="853.5" rx="15.7" ry="15.7"/>
	<path class="st0" d="M1179.7,891.6c-8.6,0-15.7,7-15.7,15.7c0,8.6,7,15.7,15.7,15.7c8.6,0,15.7-7,15.7-15.7
		C1195.3,898.6,1188.3,891.6,1179.7,891.6z"/>
	<path class="st2" d="M1128.2,934.8c-8.6,0-15.7,7-15.7,15.7c0,8.6,7,15.7,15.7,15.7c8.6,0,15.7-7,15.7-15.7
		C1143.9,941.8,1136.8,934.8,1128.2,934.8z"/>
	<path class="st2" d="M1055,956.1c-8.6,0-15.7,7-15.7,15.7c0,8.6,7,15.7,15.7,15.7c8.6,0,15.7-7,15.7-15.7
		C1070.7,963.1,1063.7,956.1,1055,956.1z"/>
	<path class="st3" d="M672.3,846c0-8.6-7-15.7-15.7-15.7c-8.6,0-15.7,7-15.7,15.7c0,8.6,7,15.7,15.7,15.7
		C665.3,861.6,672.3,854.6,672.3,846z"/>
	<path class="st8" d="M690.8,879.3c0-8.6-7-15.7-15.7-15.7c-8.6,0-15.7,7-15.7,15.7c0,8.6,7,15.7,15.7,15.7
		C683.8,894.9,690.8,887.9,690.8,879.3z"/>
	<path class="st3" d="M700.8,898.8c-8.6,0-15.7,7-15.7,15.7c0,8.6,7,15.7,15.7,15.7c8.6,0,15.7-7,15.7-15.7
		C716.5,905.8,709.4,898.8,700.8,898.8z"/>
	<path class="st4" d="M764.4,928.6c-8.6,0-15.7,7-15.7,15.7c0,8.6,7,15.7,15.7,15.7c8.6,0,15.7-7,15.7-15.7
		C780.1,935.6,773.1,928.6,764.4,928.6z"/>
	<path class="st0" d="M1226.8,764.9c-8.6,0-15.7,7-15.7,15.7c0,8.6,7,15.7,15.7,15.7c8.6,0,15.7-7,15.7-15.7
		C1242.4,772,1235.4,764.9,1226.8,764.9z"/>
	<path class="st0" d="M1081,705c-8.6,0-15.7,7-15.7,15.7c0,8.6,7,15.7,15.7,15.7c8.6,0,15.7-7,15.7-15.7
		C1096.6,712.1,1089.6,705,1081,705z"/>
	<path class="st1" d="M1275.6,714.7c-8.6,0-15.7,7-15.7,15.7c0,8.6,7,15.7,15.7,15.7c8.6,0,15.7-7,15.7-15.7
		C1291.3,721.7,1284.3,714.7,1275.6,714.7z"/>
	<path class="st0" d="M1329.7,650.5c-8.6,0-15.7,7-15.7,15.7c0,8.6,7,15.7,15.7,15.7c8.6,0,15.7-7,15.7-15.7
		C1345.4,657.5,1338.4,650.5,1329.7,650.5z"/>
	<path class="st3" d="M733.9,912.9c-8.6,0-15.7,7-15.7,15.7c0,8.6,7,15.7,15.7,15.7s15.7-7,15.7-15.7
		C749.6,919.9,742.6,912.9,733.9,912.9z"/>
	<path class="st0" d="M1319.4,691.5c-8.6,0-15.7,7-15.7,15.7c0,8.6,7,15.7,15.7,15.7c8.6,0,15.7-7,15.7-15.7
		C1335.1,698.5,1328.1,691.5,1319.4,691.5z"/>
	<path class="st2" d="M1237,730.3c-8.6,0-15.7,7-15.7,15.7c0,8.6,7,15.7,15.7,15.7c8.6,0,15.7-7,15.7-15.7
		C1252.6,737.3,1245.6,730.3,1237,730.3z"/>
	<path class="st1" d="M1217.1,837.8c8.6,0,15.7-7,15.7-15.7c0-8.6-7-15.7-15.7-15.7c-8.6,0-15.7,7-15.7,15.7
		C1201.4,830.8,1208.4,837.8,1217.1,837.8z"/>
	<path class="st1" d="M1086.3,940.5c-8.6,0-15.7,7-15.7,15.7c0,8.6,7,15.7,15.7,15.7c8.6,0,15.7-7,15.7-15.7
		C1102,947.5,1095,940.5,1086.3,940.5z"/>
	<path class="st11" d="M1201.4,865.1c-8.6,0-15.7,7-15.7,15.7c0,8.6,7,15.7,15.7,15.7c8.6,0,15.7-7,15.7-15.7
		C1217.1,872.1,1210,865.1,1201.4,865.1z"/>
	<path class="st11" d="M1156.5,916.4c-8.6,0-15.7,7-15.7,15.7c0,8.6,7,15.7,15.7,15.7c8.6,0,15.7-7,15.7-15.7
		C1172.2,923.4,1165.1,916.4,1156.5,916.4z"/>
	<path class="st8" d="M812.6,964.2c0-7.6-6.2-13.8-13.8-13.8c-7.6,0-13.8,6.2-13.8,13.8c0,7.6,6.2,13.8,13.8,13.8
		C806.5,978,812.6,971.8,812.6,964.2z"/>
	<ellipse class="st1" cx="1016.3" cy="981" rx="15.7" ry="15.7"/>
	<path class="st0" d="M997.4,1002.3c-8.6,0-15.6,7-15.6,15.6c0,8.6,7,15.6,15.6,15.6c8.6,0,15.6-7,15.6-15.6
		C1013,1009.3,1006,1002.3,997.4,1002.3z"/>
	<circle class="st1" cx="981.8" cy="1057.5" r="13.1"/>
	<ellipse class="st2" cx="981.8" cy="1095" rx="15.7" ry="15.7"/>
	<path class="st0" d="M977.5,1118.6c-7.9,0-14.3,6.4-14.3,14.3c0,7.9,6.4,14.3,14.3,14.3c7.9,0,14.3-6.4,14.3-14.3
		C991.8,1125.1,985.4,1118.6,977.5,1118.6z"/>
	<path class="st1" d="M842.1,1101.9c0-7.5-6.1-13.6-13.6-13.6s-13.6,6.1-13.6,13.6c0,7.5,6.1,13.6,13.6,13.6
		S842.1,1109.4,842.1,1101.9z"/>
	<path class="st8" d="M839.5,1063.7c0-8.6-7-15.7-15.7-15.7c-8.6,0-15.7,7-15.7,15.7c0,8.6,7,15.7,15.7,15.7
		C832.5,1079.4,839.5,1072.4,839.5,1063.7z"/>
	
		<ellipse transform="matrix(0.7071 -0.7071 0.7071 0.7071 -463.1527 867.001)" class="st0" cx="815" cy="992.6" rx="12.9" ry="12.9"/>
	<path class="st4" d="M808.2,1025.4c0,7.4,6,13.5,13.5,13.5c7.4,0,13.5-6,13.5-13.5c0-7.4-6-13.5-13.5-13.5
		C814.3,1012,808.2,1018,808.2,1025.4z"/>
</g>
</svg>
